<svg width="1028" height="784" viewBox="0 0 1028 784" fill="none" xmlns="http://www.w3.org/2000/svg">
<g clip-path="url(#clip0)">
<path opacity="0.1" d="M586.56 123.98C521.84 121.73 460.2 100.84 401.33 77.9801C342.46 55.1201 284.17 29.8001 221 17.6801C180.37 9.89009 133.91 8.79009 101.17 30.5701C69.6701 51.5701 59.4901 87.7201 54.0101 121.3C49.9001 146.56 47.4801 173.15 58.7601 196.8C66.5901 213.22 80.5001 227.02 90.1201 242.74C123.58 297.46 99.9301 364.98 63.6801 418.37C46.6801 443.44 26.9401 467.37 13.8101 494.03C0.680074 520.69 -5.38992 551.28 6.09008 578.5C17.4801 605.5 44.6101 625.74 74.0001 639.99C133.68 668.99 204 677.22 272.61 681.91C424.43 692.3 577.07 687.8 729.29 683.3C785.63 681.63 842.21 679.94 897.64 671.23C928.41 666.4 960.19 658.72 982.53 640.23C1010.89 616.7 1017.92 576.86 998.92 547.35C967.04 497.86 878.92 485.57 856.61 432.46C844.34 403.22 856.94 370.66 874.76 343.54C913 285.38 977.09 234.35 980.47 167.87C982.79 122.21 951.98 76.4801 904.34 54.8701C854.4 32.2301 785.16 35.0801 748.34 72.5601C710.36 111.11 643.68 125.98 586.56 123.98Z" fill="#79B473"/>
<path opacity="0.1" d="M579.79 754.16C784.677 754.16 950.77 741.812 950.77 726.58C950.77 711.348 784.677 699 579.79 699C374.903 699 208.81 711.348 208.81 726.58C208.81 741.812 374.903 754.16 579.79 754.16Z" fill="#79B473"/>
<path d="M292.94 637.25C292.94 637.25 313.94 633.89 326.54 648.74C326.54 648.74 317.3 656.02 297.42 645.94L292.94 637.25Z" fill="#79B473"/>
<path d="M290.68 636.98C290.68 636.98 277.29 653.5 283.86 671.83C283.86 671.83 294.78 667.45 295.97 645.19L290.68 636.98Z" fill="#79B473"/>
<path d="M278.68 609.81C278.68 609.81 287.08 594.41 320.68 615.97C320.68 615.97 316.2 626.33 301.36 625.49C286.52 624.65 282.58 617.98 278.68 609.81Z" fill="#79B473"/>
<path d="M276.49 608.7C276.49 608.7 259.06 606.7 257.37 646.61C257.37 646.61 268.42 648.9 276.27 636.28C284.12 623.66 280.88 616.58 276.49 608.7Z" fill="#79B473"/>
<path d="M266.34 576.88C266.34 576.88 276.14 549.72 311.7 569.04C311.7 569.04 303.58 593.96 269.98 586.12L266.34 576.88Z" fill="#79B473"/>
<path d="M255.41 536.28C255.41 536.28 273.9 508.83 306.66 534.28C306.66 534.28 295.18 560.04 258.21 546.04L255.41 536.28Z" fill="#79B473"/>
<path d="M251.49 497.63C251.49 497.63 273.06 472.43 305.54 497.63C305.54 497.63 285.1 519.75 251.49 504.07V497.63Z" fill="#79B473"/>
<path d="M248.13 460.11C248.13 460.11 269.98 433.79 301.06 458.71C301.06 458.71 276.42 481.95 248.13 466.27V460.11Z" fill="#79B473"/>
<path d="M250.09 426.79C250.09 426.79 273.09 392.9 302.18 415.87C302.18 415.87 277.54 444.99 250.09 433.23V426.79Z" fill="#79B473"/>
<path d="M255.41 387.86C255.41 387.86 279.78 354.26 308.06 380.02C308.06 380.02 279.22 409.15 255.41 394.02V387.86Z" fill="#79B473"/>
<path d="M263.54 353.07C263.54 353.07 292.38 321.5 317.54 334.07C317.54 334.07 287.48 367.6 262.28 361.44L263.54 353.07Z" fill="#79B473"/>
<path d="M273.62 320.1C273.62 320.1 306.94 281.46 326.26 294.34C326.26 294.34 301.74 324.34 271.26 327.34L273.62 320.1Z" fill="#79B473"/>
<path d="M288.17 281.85C288.17 281.85 317.3 250.27 338.58 258.11C338.58 258.11 313.66 290.87 284.26 291.71L288.17 281.85Z" fill="#79B473"/>
<path d="M301.34 246.07C301.34 246.07 333.54 215.82 347.54 221.14C347.54 221.14 324.3 254.75 299.94 252.79L301.34 246.07Z" fill="#79B473"/>
<path d="M314.22 212.98C314.22 212.98 341.94 176.86 357.06 179.66C357.06 179.66 340.26 211.86 314.22 216.66V212.98Z" fill="#79B473"/>
<path d="M328.2 168.48C328.2 168.48 352.7 140.78 365.93 140.85C365.93 140.85 346.59 177.85 327.19 177.51L328.2 168.48Z" fill="#79B473"/>
<path d="M336.48 138.82L360.14 81.1299C360.14 81.1299 361.33 133.28 333.47 149.52L336.48 138.82Z" fill="#79B473"/>
<path d="M346.09 75.2001C346.09 75.2001 350.01 27.0401 347.49 23.1201C347.49 23.1201 364.41 63.1201 345.92 96.4801L346.09 75.2001Z" fill="#79B473"/>
<path d="M265.42 576.23C265.42 576.23 240.88 561.02 224.99 598.23C224.99 598.23 246.83 612.72 268.3 585.72L265.42 576.23Z" fill="#79B473"/>
<path d="M254.68 534.73C254.68 534.73 224.58 521 209.97 559.85C209.97 559.85 233.23 575.85 257.42 544.55L254.68 534.73Z" fill="#79B473"/>
<path d="M250.09 499.98C250.09 499.98 228.53 474.78 196.09 499.98C196.09 499.98 216.53 522.1 250.09 506.42V499.98Z" fill="#79B473"/>
<path d="M247.4 460.11C247.4 460.11 225.56 433.79 194.47 458.71C194.47 458.71 219.12 481.95 247.4 466.27V460.11Z" fill="#79B473"/>
<path d="M250.09 427.75C250.09 427.75 234.77 389.75 201.47 406.12C201.47 406.12 219.47 439.77 248.74 434.04L250.09 427.75Z" fill="#79B473"/>
<path d="M257.34 387.67C257.34 387.67 242.12 349.06 208.34 366.97C208.34 366.97 229.02 402.36 255.84 393.64L257.34 387.67Z" fill="#79B473"/>
<path d="M266.78 353.27C266.78 353.27 260.78 310.94 232.78 307.15C232.78 307.15 238.71 351.79 263 360.9L266.78 353.27Z" fill="#79B473"/>
<path d="M274.33 320.17C274.33 320.17 271.99 269.17 248.84 267.4C248.84 267.4 249.62 306.11 271.72 327.4L274.33 320.17Z" fill="#79B473"/>
<path d="M290.57 280.39C290.57 280.39 283.66 237.98 261.57 232.79C261.57 232.79 264.31 273.87 288.39 290.79L290.57 280.39Z" fill="#79B473"/>
<path d="M303.96 246.37C303.96 246.37 303.72 202.2 290.23 195.7C290.23 195.7 281.85 235.7 300.05 252.01L303.96 246.37Z" fill="#79B473"/>
<path d="M315.25 212.53C315.25 212.53 313.36 167.04 299.38 160.63C299.38 160.63 294.59 196.63 313.15 215.51L315.25 212.53Z" fill="#79B473"/>
<path d="M330.15 172.1C330.15 172.1 330.06 135.1 320.09 126.43C320.09 126.43 310.16 166.96 324.94 179.55L330.15 172.1Z" fill="#79B473"/>
<path d="M335.3 136.98L325.6 75.3901C325.6 75.3901 312.41 125.85 335.77 148.08L335.3 136.98Z" fill="#79B473"/>
<path d="M337.2 75.79C337.2 75.79 312.28 34.39 312.79 29.79C312.79 29.79 315.44 73.18 346.79 94.79L337.2 75.79Z" fill="#79B473"/>
<path d="M340.12 63.56C340.12 63.56 316.6 4.75998 305.96 -0.0200195C305.96 -0.0200195 339.56 17.06 342.08 61.86L340.12 63.56Z" fill="#79B473"/>
<path d="M327.06 177.86L325.46 177.36C345.31 112.64 350.26 71.3598 339.4 61.0198L340.56 59.7998C352.07 70.7198 347.4 111.54 327.06 177.86Z" fill="#79B473"/>
<path d="M272.41 329.37L270.03 328.53C272.13 322.6 274.41 316.58 276.79 310.65C297.51 258.98 315.14 210.98 326.45 174.09L328.52 173.09C317.19 209.98 299.87 259.88 279.13 311.59C276.76 317.49 274.5 323.47 272.41 329.37Z" fill="#79B473"/>
<path d="M322.49 685.7C322.17 685.34 289.99 649.12 267.57 587.26C254.422 551.053 247.098 512.99 245.87 474.49C244.34 426.36 254.43 372.61 271.74 323.8L273.62 326C234.78 435.56 250.21 529.45 270.68 585.98C292.87 647.27 324.68 683.1 324.99 683.46L322.49 685.7Z" fill="#79B473"/>
<path d="M182.28 677.8C182.28 677.8 144.23 675.51 148.72 702.17C148.72 702.17 147.83 706.88 152.1 709.02C152.1 709.02 152.16 707.02 156 707.71C157.364 707.94 158.75 708.007 160.13 707.91C161.998 707.785 163.774 707.055 165.19 705.83V705.83C165.19 705.83 175.88 701.41 180.04 683.93C180.04 683.93 183.12 680.12 182.99 679.14L176.57 681.88C176.57 681.88 178.77 686.51 177.04 690.36C177.04 690.36 176.83 682.05 175.6 682.24C175.35 682.24 172.26 683.85 172.26 683.85C172.26 683.85 176.04 691.92 173.19 697.78C173.19 697.78 174.27 687.84 171.09 684.43L166.57 687.07C166.57 687.07 170.98 695.4 167.99 702.2C167.99 702.2 168.75 691.77 165.62 687.71L161.52 690.91C161.52 690.91 165.66 699.12 163.14 704.76C163.14 704.76 162.81 692.62 160.63 691.7C160.63 691.7 157.05 694.86 156.5 696.16C156.5 696.16 159.34 702.16 157.58 705.27C157.58 705.27 156.5 697.18 155.58 697.14C155.58 697.14 152.01 702.5 151.64 706.14C151.813 702.747 152.871 699.458 154.71 696.6C152.653 696.989 150.754 697.973 149.25 699.43C149.25 699.43 149.8 695.64 155.59 695.31C155.59 695.31 158.59 691.24 159.33 690.99C159.33 690.99 153.57 690.51 150.08 692.06C150.08 692.06 153.15 688.49 160.39 690.06L164.39 686.76C164.39 686.76 156.81 685.76 153.59 686.87C153.59 686.87 157.29 683.71 165.48 686.01L169.88 683.38C169.88 683.38 163.42 681.99 159.56 682.49C159.56 682.49 163.63 680.3 171.17 682.67L174.32 681.26C174.32 681.26 169.58 680.33 168.2 680.18C166.82 680.03 166.73 679.65 166.73 679.65C169.732 679.151 172.814 679.497 175.63 680.65C175.63 680.65 182.39 678.22 182.28 677.8Z" fill="#79B473"/>
<path d="M71.68 690.17C71.68 690.17 33.68 687.88 38.13 714.54C38.13 714.54 37.23 719.25 41.5 721.39C41.5 721.39 41.57 719.39 45.41 720.08C46.7734 720.314 48.1603 720.381 49.54 720.28C51.4053 720.156 53.1789 719.426 54.59 718.2V718.2C54.59 718.2 65.29 713.78 69.45 696.3C69.45 696.3 72.52 692.49 72.45 691.51L66.03 694.25C66.03 694.25 68.23 698.88 66.5 702.73C66.5 702.73 66.29 694.42 65.06 694.61C64.81 694.61 61.72 696.22 61.72 696.22C61.72 696.22 65.5 704.29 62.65 710.15C62.65 710.15 63.73 700.21 60.54 696.8L56.02 699.44C56.02 699.44 60.43 707.77 57.44 714.57C57.44 714.57 58.21 704.14 55.07 700.08L50.98 703.28C50.98 703.28 55.12 711.49 52.6 717.13C52.6 717.13 52.27 704.99 50.09 704.07C50.09 704.07 46.51 707.23 45.96 708.53C45.96 708.53 48.8 714.53 47.04 717.64C47.04 717.64 45.96 709.55 45.04 709.51C45.04 709.51 41.48 714.87 41.1 718.51C41.2787 715.116 42.3403 711.827 44.18 708.97C42.1199 709.36 40.2186 710.344 38.71 711.8C38.71 711.8 39.27 708.01 45.06 707.68C45.06 707.68 48.06 703.61 48.8 703.37C48.8 703.37 43.04 702.88 39.55 704.43C39.55 704.43 42.62 700.86 49.86 702.43L53.86 699.13C53.86 699.13 46.28 698.13 43.06 699.24C43.06 699.24 46.76 696.08 54.95 698.38L59.35 695.75C59.35 695.75 52.88 694.36 49.03 694.86C49.03 694.86 53.1 692.67 60.64 695.04L63.79 693.63C63.79 693.63 59.05 692.7 57.66 692.55C56.27 692.4 56.2 692.02 56.2 692.02C59.2021 691.527 62.2821 691.873 65.1 693.02C65.1 693.02 71.76 690.59 71.68 690.17Z" fill="#79B473"/>
<path d="M133.32 719.21C133.32 719.21 95.32 716.92 99.76 743.58C99.76 743.58 98.87 748.29 103.14 750.43C103.14 750.43 103.21 748.43 107.04 749.12C108.407 749.35 109.797 749.417 111.18 749.32C113.044 749.192 114.817 748.462 116.23 747.24V747.24C116.23 747.24 126.92 742.82 131.08 725.34C131.08 725.34 134.16 721.53 134.08 720.55L127.66 723.29C127.66 723.29 129.85 727.92 128.13 731.77C128.13 731.77 127.92 723.46 126.68 723.65C126.43 723.65 123.35 725.26 123.35 725.26C123.35 725.26 127.12 733.32 124.27 739.19C124.27 739.19 125.35 729.25 122.17 725.84L117.65 728.48C117.65 728.48 122.06 736.81 119.07 743.61C119.07 743.61 119.84 733.18 116.7 729.12L112.6 732.32C112.6 732.32 116.75 740.53 114.22 746.17C114.22 746.17 113.89 734.03 111.72 733.11C111.72 733.11 108.13 736.27 107.59 737.57C107.59 737.57 110.43 743.57 108.66 746.68C108.66 746.68 107.58 738.59 106.66 738.55C106.66 738.55 103.09 743.91 102.72 747.55C102.893 744.156 103.951 740.867 105.79 738.01C103.732 738.399 101.834 739.383 100.33 740.84C100.33 740.84 100.88 737.05 106.68 736.72C106.68 736.72 109.62 732.65 110.41 732.4C110.41 732.4 104.65 731.92 101.16 733.47C101.16 733.47 104.24 729.9 111.47 731.52L115.47 728.22C115.47 728.22 107.89 727.22 104.67 728.33C104.67 728.33 108.38 725.17 116.56 727.47L120.97 724.84C120.97 724.84 114.54 723.48 110.68 723.98C110.68 723.98 114.74 721.79 122.29 724.16L125.43 722.75C125.43 722.75 120.7 721.82 119.31 721.67C117.92 721.52 117.85 721.14 117.85 721.14C120.852 720.64 123.934 720.987 126.75 722.14C126.75 722.14 133.43 719.63 133.32 719.21Z" fill="#79B473"/>
<path opacity="0.1" d="M103.66 757.78C118.533 757.78 130.59 755.743 130.59 753.23C130.59 750.717 118.533 748.68 103.66 748.68C88.787 748.68 76.73 750.717 76.73 753.23C76.73 755.743 88.787 757.78 103.66 757.78Z" fill="#79B473"/>
<path opacity="0.1" d="M957.84 757.78C972.713 757.78 984.77 755.743 984.77 753.23C984.77 750.717 972.713 748.68 957.84 748.68C942.967 748.68 930.91 750.717 930.91 753.23C930.91 755.743 942.967 757.78 957.84 757.78Z" fill="#79B473"/>
<path opacity="0.1" d="M699.95 783.97C714.823 783.97 726.88 781.933 726.88 779.42C726.88 776.907 714.823 774.87 699.95 774.87C685.077 774.87 673.02 776.907 673.02 779.42C673.02 781.933 685.077 783.97 699.95 783.97Z" fill="#79B473"/>
<path opacity="0.1" d="M1000.43 718.34C1015.3 718.34 1027.36 716.303 1027.36 713.79C1027.36 711.277 1015.3 709.24 1000.43 709.24C985.557 709.24 973.5 711.277 973.5 713.79C973.5 716.303 985.557 718.34 1000.43 718.34Z" fill="#79B473"/>
<path opacity="0.1" d="M156.07 715.5C170.943 715.5 183 713.463 183 710.95C183 708.437 170.943 706.4 156.07 706.4C141.197 706.4 129.14 708.437 129.14 710.95C129.14 713.463 141.197 715.5 156.07 715.5Z" fill="#79B473"/>
<path opacity="0.1" d="M45.44 728.27C60.313 728.27 72.37 726.233 72.37 723.72C72.37 721.207 60.313 719.17 45.44 719.17C30.567 719.17 18.51 721.207 18.51 723.72C18.51 726.233 30.567 728.27 45.44 728.27Z" fill="#79B473"/>
<path d="M724.29 79.7402H312.54C307.128 79.7402 302.74 84.1278 302.74 89.5402V711.32C302.74 716.733 307.128 721.12 312.54 721.12H724.29C729.702 721.12 734.09 716.733 734.09 711.32V89.5402C734.09 84.1278 729.702 79.7402 724.29 79.7402Z" fill="#515151"/>
<path opacity="0.1" d="M670.74 134.87H371.43C355.298 134.87 342.22 147.948 342.22 164.08V231.75C342.22 247.882 355.298 260.96 371.43 260.96H670.74C686.872 260.96 699.95 247.882 699.95 231.75V164.08C699.95 147.948 686.872 134.87 670.74 134.87Z" fill="black"/>
<path d="M686.63 137.33H354.72C349.087 137.33 344.52 141.897 344.52 147.53V249.08C344.52 254.713 349.087 259.28 354.72 259.28H686.63C692.263 259.28 696.83 254.713 696.83 249.08V147.53C696.83 141.897 692.263 137.33 686.63 137.33Z" fill="#E6E8EC"/>
<path opacity="0.1" d="M365.47 313.98H415.03C420.713 313.98 425.32 318.587 425.32 324.27V381.73C425.32 387.413 420.713 392.02 415.03 392.02H365.47C359.787 392.02 355.18 387.413 355.18 381.73V324.27C355.18 318.587 359.787 313.98 365.47 313.98Z" fill="white" stroke="white"/>
<path opacity="0.1" d="M452.42 313.98H501.98C507.663 313.98 512.27 318.587 512.27 324.27V381.73C512.27 387.413 507.663 392.02 501.98 392.02H452.42C446.737 392.02 442.13 387.413 442.13 381.73V324.27C442.13 318.587 446.737 313.98 452.42 313.98Z" fill="white" stroke="white"/>
<path opacity="0.1" d="M539.37 313.98H588.93C594.613 313.98 599.22 318.587 599.22 324.27V381.73C599.22 387.413 594.613 392.02 588.93 392.02H539.37C533.687 392.02 529.08 387.413 529.08 381.73V324.27C529.08 318.587 533.687 313.98 539.37 313.98Z" fill="white" stroke="white"/>
<path opacity="0.1" d="M657.83 315.16H644.37C628.442 315.16 615.53 328.072 615.53 344V365.36C615.53 381.288 628.442 394.2 644.37 394.2H657.83C673.758 394.2 686.67 381.288 686.67 365.36V344C686.67 328.072 673.758 315.16 657.83 315.16Z" fill="black"/>
<path d="M675.88 313.48H626.32C620.361 313.48 615.53 318.311 615.53 324.27V381.73C615.53 387.689 620.361 392.52 626.32 392.52H675.88C681.839 392.52 686.67 387.689 686.67 381.73V324.27C686.67 318.311 681.839 313.48 675.88 313.48Z" fill="#79B473"/>
<path opacity="0.1" d="M365.47 400.93H415.03C420.713 400.93 425.32 405.537 425.32 411.22V468.68C425.32 474.363 420.713 478.97 415.03 478.97H365.47C359.787 478.97 355.18 474.363 355.18 468.68V411.22C355.18 405.537 359.787 400.93 365.47 400.93Z" fill="white" stroke="white"/>
<path opacity="0.1" d="M452.42 400.93H501.98C507.663 400.93 512.27 405.537 512.27 411.22V468.68C512.27 474.363 507.663 478.97 501.98 478.97H452.42C446.737 478.97 442.13 474.363 442.13 468.68V411.22C442.13 405.537 446.737 400.93 452.42 400.93Z" fill="white" stroke="white"/>
<path opacity="0.1" d="M539.37 400.93H588.93C594.613 400.93 599.22 405.537 599.22 411.22V468.68C599.22 474.363 594.613 478.97 588.93 478.97H539.37C533.687 478.97 529.08 474.363 529.08 468.68V411.22C529.08 405.537 533.687 400.93 539.37 400.93Z" fill="white" stroke="white"/>
<path opacity="0.1" d="M365.47 496.91H415.03C420.713 496.91 425.32 501.517 425.32 507.2V564.66C425.32 570.343 420.713 574.95 415.03 574.95H365.47C359.787 574.95 355.18 570.343 355.18 564.66V507.2C355.18 501.517 359.787 496.91 365.47 496.91Z" fill="white" stroke="white"/>
<path opacity="0.1" d="M452.42 496.91H501.98C507.663 496.91 512.27 501.517 512.27 507.2V564.66C512.27 570.343 507.663 574.95 501.98 574.95H452.42C446.737 574.95 442.13 570.343 442.13 564.66V507.2C442.13 501.517 446.737 496.91 452.42 496.91Z" fill="white" stroke="white"/>
<path opacity="0.1" d="M539.37 496.91H588.93C594.613 496.91 599.22 501.517 599.22 507.2V564.66C599.22 570.343 594.613 574.95 588.93 574.95H539.37C533.687 574.95 529.08 570.343 529.08 564.66V507.2C529.08 501.517 533.687 496.91 539.37 496.91Z" fill="white" stroke="white"/>
<path opacity="0.1" d="M539.37 592.89H588.93C594.613 592.89 599.22 597.497 599.22 603.18V660.64C599.22 666.323 594.613 670.93 588.93 670.93H539.37C533.687 670.93 529.08 666.323 529.08 660.64V603.18C529.08 597.497 533.687 592.89 539.37 592.89Z" fill="white" stroke="white"/>
<path opacity="0.1" d="M657.83 402.11H644.37C628.442 402.11 615.53 415.022 615.53 430.95V452.31C615.53 468.238 628.442 481.15 644.37 481.15H657.83C673.758 481.15 686.67 468.238 686.67 452.31V430.95C686.67 415.022 673.758 402.11 657.83 402.11Z" fill="black"/>
<path d="M675.37 400.43H626.83C620.589 400.43 615.53 405.489 615.53 411.73V468.17C615.53 474.411 620.589 479.47 626.83 479.47H675.37C681.611 479.47 686.67 474.411 686.67 468.17V411.73C686.67 405.489 681.611 400.43 675.37 400.43Z" fill="#79B473"/>
<path opacity="0.2" d="M675.37 400.43H626.83C620.589 400.43 615.53 405.489 615.53 411.73V468.17C615.53 474.411 620.589 479.47 626.83 479.47H675.37C681.611 479.47 686.67 474.411 686.67 468.17V411.73C686.67 405.489 681.611 400.43 675.37 400.43Z" fill="black"/>
<path opacity="0.1" d="M364.72 592.89H502.73C507.999 592.89 512.27 597.161 512.27 602.43V661.39C512.27 666.659 507.999 670.93 502.73 670.93H364.72C359.451 670.93 355.18 666.659 355.18 661.39V602.43C355.18 597.161 359.451 592.89 364.72 592.89Z" fill="white" stroke="white"/>
<path opacity="0.1" d="M620.41 496.91H675C681.163 496.91 686.16 501.907 686.16 508.07V659.78C686.16 665.944 681.163 670.94 675 670.94H620.41C614.246 670.94 609.25 665.944 609.25 659.78V508.07C609.25 501.907 614.246 496.91 620.41 496.91Z" fill="white" stroke="white"/>
<path d="M681.01 237.98H649.87V241.35H681.01V237.98Z" fill="#79B473"/>
<path d="M635.42 237.98H604.28V241.35H635.42V237.98Z" fill="#79B473"/>
<path d="M589.82 237.98H558.68V241.35H589.82V237.98Z" fill="#79B473"/>
<path d="M544.23 237.98H513.09V241.35H544.23V237.98Z" fill="#79B473"/>
<path d="M879.87 474.54C883.08 463.74 879.87 452.94 879.87 452.94V442.75C879.87 442.75 883.54 422.83 867.16 410.05L856.3 400.47C856.3 400.47 850.21 395.24 848.44 394.91C848.11 394.839 847.776 394.789 847.44 394.76L847.12 394.57C846.187 392.974 845.391 391.301 844.74 389.57C845.443 389.661 846.158 389.589 846.829 389.361C847.5 389.132 848.109 388.752 848.61 388.25C849.002 387.799 849.311 387.28 849.52 386.72V386.72C850.15 385.31 850.26 383.6 850.79 382.1C851.255 380.884 851.932 379.76 852.79 378.78C852.68 378.96 852.56 379.13 852.46 379.32C854 377.4 856.01 375.76 857.46 373.74C857.748 373.339 858.012 372.922 858.25 372.49C858.19 372.58 858.11 372.66 858.04 372.75C860.04 369.54 860.65 365.65 861.23 361.9C861.51 360.624 861.53 359.304 861.29 358.02C861.009 357.168 860.647 356.344 860.21 355.56C857.85 350.69 857.89 344.56 854.12 340.67C851.28 337.76 846.98 336.87 842.93 336.37C838.88 335.87 834.62 335.58 831.14 333.46C830.168 332.724 829.093 332.134 827.95 331.71C827.375 331.509 826.748 331.515 826.176 331.727C825.605 331.939 825.126 332.343 824.82 332.87C824.748 333.182 824.604 333.473 824.4 333.72C824.219 333.823 824.016 333.883 823.808 333.895C823.6 333.907 823.392 333.871 823.2 333.79L817.81 332.35L817.87 332.62H817.73L817.93 333.47C818.036 333.452 818.144 333.47 818.237 333.523C818.33 333.576 818.402 333.66 818.44 333.76L817.57 335.1C815.902 335.07 814.254 334.731 812.71 334.1C812.7 334.187 812.7 334.274 812.71 334.36H812.63C812.53 335.88 814.26 336.87 814.79 338.3C815.003 338.926 815.003 339.604 814.79 340.23C814.573 340.811 814.232 341.336 813.79 341.77C811.88 343.66 809.43 343.29 807.23 344.48C807.04 344.561 806.87 344.683 806.732 344.837C806.593 344.99 806.491 345.173 806.43 345.37C806.343 345.518 806.318 345.694 806.36 345.86C806.447 346.09 806.605 346.286 806.81 346.42C807.451 346.938 808.152 347.375 808.9 347.72C808.68 347.92 808.47 348.12 808.27 348.33C805.478 351.168 803.432 354.653 802.316 358.474C801.199 362.295 801.047 366.333 801.872 370.228C802.697 374.123 804.474 377.752 807.044 380.792C809.614 383.832 812.897 386.189 816.6 387.65C816.68 388.07 816.74 388.5 816.8 388.95C816.8 389 816.8 389.03 816.8 389.08L816.86 389.66L809.6 392.75C808.505 392.742 807.435 392.422 806.514 391.829C805.594 391.236 804.86 390.394 804.4 389.4C802.71 385.91 796.74 389.4 796.74 389.4C796.74 389.4 778.53 388.04 771.74 391.4C771.74 391.4 760.87 386.84 759.34 386.53C757.81 386.22 755.52 385.01 754.45 385.32C753.38 385.63 752 383.32 751.23 383.49C750.46 383.66 750.16 381.97 747.71 381.36C745.26 380.75 744.34 381.52 741.59 378.78C738.84 376.04 716.48 365.24 716.48 365.24L706.44 356.98L695.73 348.46L695.54 348.81C695.47 348.56 695.4 348.3 695.33 348.02C694.264 343.776 692.928 339.604 691.33 335.53C690.64 333.88 690.33 331.8 689.4 332.9C688.83 333.56 687.86 332.11 686.4 331.13C686.09 330.916 685.737 330.774 685.366 330.714C684.994 330.654 684.614 330.678 684.253 330.783C683.892 330.888 683.559 331.073 683.278 331.323C682.997 331.574 682.776 331.883 682.63 332.23V332.23C674.29 345.31 671.3 346.23 676.13 351.04C680.44 355.31 683.3 359.04 686.81 360.22L687.23 360.35C687.155 360.37 687.075 360.37 687 360.35L707.36 384.69C707.36 384.69 722.05 397.47 732.16 401.57C742.27 405.67 741.49 406.9 741.49 406.9C741.49 406.9 772.11 422.41 776.85 422.11C781.59 421.81 780.68 453.9 778.69 459.11C776.7 464.32 773.49 501.7 773.49 501.7C773.49 501.7 770.42 509.61 773.64 515.08C773.64 515.08 774.35 525.56 773.71 528.08C770.92 532.38 766.94 539.68 766.29 547.19C766.29 547.59 766.21 547.96 766.17 548.35C765.966 548.587 765.722 548.787 765.45 548.94L766.13 548.74C765.841 551.87 765.169 554.953 764.13 557.92C762.511 562.087 761.654 566.51 761.6 570.98V595.14L759.6 610.14C759.6 610.14 757.15 621.49 759.6 624.14C760.633 625.462 761.113 627.132 760.94 628.8C760.838 630.737 761.387 632.652 762.5 634.24C762.925 634.705 763.237 635.262 763.411 635.867C763.584 636.473 763.615 637.111 763.5 637.73C762.69 640.36 764.7 668.35 764.7 668.35C764.7 668.35 764.11 676.06 763.3 676.47C762.49 676.88 764.7 685.39 764.7 685.39C764.7 685.39 756.43 692.29 758.54 695.94L760.65 699.18L760.09 699.73L759.75 700.08C759.112 699.712 758.368 699.571 757.64 699.68C755.041 702.339 752.261 704.815 749.32 707.09C745.59 709.78 735.44 713.68 735.44 713.68L727.44 714.33H727.29C727.29 714.33 723.46 713.97 725.61 719.9C727.76 725.83 746.98 724.01 746.98 724.01L758.2 722.24C758.2 722.24 778.2 722.34 783.93 721.07C786.32 720.54 786.93 719.26 786.73 717.97L786.67 717.91C786.395 716.68 785.833 715.532 785.03 714.56C784.989 714.496 784.942 714.436 784.89 714.38L785.25 710.28C793.74 705.39 782.85 695.77 782.85 695.77C782.85 695.77 786.58 687.66 788.49 685.03C790.4 682.4 790.4 643.65 790.4 643.65C790.4 643.65 791.4 629.65 788.77 626.41C788.725 625.355 788.967 624.308 789.471 623.379C789.974 622.451 790.721 621.677 791.63 621.14C793.52 619.85 799.23 602.08 803.71 587.33L806.53 604.71C806.53 604.71 805.92 613.03 807.75 615.46C808.094 615.918 808.339 616.443 808.47 617C808.601 617.558 808.614 618.137 808.51 618.7C808.076 621.032 808.217 623.435 808.92 625.7C809.135 626.672 809.658 627.549 810.41 628.2C812.04 629.01 812.14 631.9 812.75 632.51C813.36 633.12 817.14 631.65 817.34 633.88C817.454 635.839 817.454 637.802 817.34 639.76L818.57 675.86C818.57 675.86 816.57 678.86 816.12 686.86C815.95 690.27 815.31 692.21 814.65 693.32C814.284 693.916 814.116 694.612 814.17 695.309C814.223 696.006 814.497 696.668 814.95 697.2L815.3 697.61L813.79 698.77C813.183 699.242 812.758 699.908 812.587 700.657C812.415 701.407 812.508 702.192 812.85 702.88C812.363 703.304 812.014 703.864 811.848 704.488C811.683 705.111 811.708 705.771 811.92 706.38C811.982 706.581 812.069 706.772 812.18 706.95C811.033 707.13 809.968 707.657 809.13 708.46C807.622 710.532 805.804 712.36 803.74 713.88C800.745 716.175 797.877 718.632 795.15 721.24C793.864 722.99 792.14 724.37 790.15 725.24C789.662 725.438 789.157 725.589 788.64 725.69C784.64 726.51 785.89 730.69 789.15 731.38C792.41 732.07 803.23 735.38 811.65 733.45C811.65 733.45 814.15 734.45 817.82 732.59C821.49 730.73 829.68 728.45 829.68 728.45C829.68 728.45 834.27 728.45 834.89 726.63C835.051 726.05 835.139 725.452 835.15 724.85L835.28 724.72L835.16 724.61C835.171 723.247 835.068 721.886 834.85 720.54C834.73 719.84 834.6 719.22 834.48 718.72C834.09 717.2 833.36 715.23 833.05 714.4C833.102 714.334 833.149 714.264 833.19 714.19C834.94 711.19 832.03 704.07 832.03 704.07C832.986 702.554 834.147 701.178 835.48 699.98C837.11 698.76 841.4 667.12 841.4 667.12C841.4 667.12 841.19 659.01 843.4 655.36C845.61 651.71 840.34 629.61 840.34 629.61C840.34 629.61 838.09 624.54 838.91 622.71C839.73 620.88 838.09 614.19 838.09 614.19V606.19C838.085 605.238 837.927 604.292 837.62 603.39C836.99 601.51 836.06 597.9 837.07 595.31C838.5 591.66 841.76 569.15 841.76 569.15C841.76 569.15 839.21 559.22 842.95 551.31C843.242 550.678 843.576 550.067 843.95 549.48C846.72 545.13 845.89 537.4 844.52 531.17C844.32 530.17 844.09 529.27 843.86 528.4C843.77 528.02 843.67 527.66 843.57 527.3L844.01 527.12C844.01 527.12 844.01 526.53 844.15 525.52C845.66 525.221 847.092 524.615 848.358 523.739C849.624 522.864 850.697 521.737 851.51 520.43C851.51 520.43 860.85 509.93 869.11 505.52C877.37 501.11 877.99 494.72 877.99 494.72C876.77 492.59 880.18 483.92 880.18 483.92L879.87 474.54ZM852.93 488.54L844.09 498.79V498.73C841.79 495.53 846.23 488.38 846.23 488.38L853.58 471.98C853.52 474.08 853.26 475.98 852.58 476.81C850.58 479.55 856.26 484.12 856.26 484.12C853.23 484.13 852.93 488.54 852.93 488.54V488.54Z" fill="url(#paint0_linear)"/>
<path d="M697.29 354.15L692.46 363.52C690.931 363.389 689.423 363.074 687.97 362.58C685.667 361.892 683.536 360.724 681.717 359.152C679.898 357.58 678.434 355.64 677.42 353.46C673.11 343.94 680.24 337.79 683.56 335.97C686.88 334.15 689.97 332.08 692.46 338.05C694.023 342.1 695.329 346.245 696.37 350.46C696.95 352.65 697.29 354.15 697.29 354.15Z" fill="#CC818C"/>
<path d="M850.68 402.89L842.97 414.37C842.97 414.37 806.54 431.75 813.5 411.37C816.56 402.37 816.92 395.8 816.37 391.25C816.37 391.2 816.37 391.17 816.37 391.12C815.65 385.43 813.51 382.96 813.51 382.96C813.51 382.96 849.02 364.78 843.73 377.21C842.651 379.793 842.222 382.602 842.48 385.39C842.916 389.405 844.22 393.278 846.3 396.74C847.551 398.931 849.018 400.992 850.68 402.89V402.89Z" fill="#CC818C"/>
<path d="M839.59 630.3C839.59 630.3 844.83 652.3 842.59 655.89C840.35 659.48 840.59 667.58 840.59 667.58C840.59 667.58 836.36 699.02 834.75 700.22C833.429 701.389 832.274 702.735 831.32 704.22C831.32 704.22 834.2 711.34 832.47 714.28C832.203 714.727 831.801 715.078 831.32 715.28C828.62 716.42 818.64 711.36 812.96 708.28C812.503 708.03 812.112 707.673 811.822 707.24C811.532 706.806 811.351 706.309 811.294 705.791C811.237 705.273 811.306 704.748 811.495 704.262C811.684 703.777 811.988 703.343 812.38 703C812.039 702.318 811.944 701.539 812.111 700.795C812.279 700.052 812.699 699.389 813.3 698.92L814.8 697.76L814.45 697.35C814.001 696.819 813.731 696.161 813.677 695.468C813.623 694.776 813.789 694.083 814.15 693.49C814.8 692.4 815.43 690.49 815.6 687.08C816.01 679.22 818.02 676.2 818.02 676.2L816.81 640.32C816.925 638.375 816.925 636.425 816.81 634.48C816.61 632.27 812.88 633.73 812.28 633.12C811.68 632.51 811.57 629.65 809.96 628.84C809.218 628.188 808.706 627.315 808.5 626.35C807.788 624.086 807.648 621.681 808.09 619.35C808.194 618.79 808.181 618.216 808.052 617.662C807.922 617.107 807.68 616.586 807.34 616.13C805.53 613.71 806.13 605.46 806.13 605.46L803.35 588.18C798.92 602.84 793.29 620.5 791.42 621.78C790.523 622.317 789.787 623.087 789.291 624.007C788.795 624.928 788.556 625.965 788.6 627.01C791.22 630.24 790.21 644.15 790.21 644.15C790.21 644.15 790.21 682.63 788.32 685.26C786.43 687.89 782.77 695.98 782.77 695.98C782.77 695.98 793.57 705.59 785.07 710.44H784.98C776.31 715.28 758.38 701.78 758.38 701.78L760.25 699.91L760.8 699.36L758.68 696.2C756.6 692.57 764.76 685.72 764.76 685.72C764.76 685.72 762.58 677.25 763.38 676.85C764.18 676.45 764.76 668.79 764.76 668.79C764.76 668.79 762.76 640.98 763.58 638.36C763.69 637.744 763.656 637.11 763.483 636.509C763.309 635.907 763.001 635.354 762.58 634.89C761.479 633.312 760.937 631.411 761.04 629.49C761.215 627.832 760.738 626.172 759.71 624.86C757.29 622.24 759.71 610.96 759.71 610.96L761.71 596.04V572.35C761.737 567.777 762.594 563.247 764.24 558.98C765.462 555.521 766.202 551.911 766.44 548.25C767.1 540.61 771.21 533.19 773.97 528.96C775.43 526.72 776.52 525.38 776.52 525.38L841 522.86C841 522.86 842 525.73 843.08 529.72C843.3 530.59 843.52 531.51 843.73 532.47C845.08 538.67 845.89 546.35 843.16 550.67C842.79 551.255 842.456 551.863 842.16 552.49C838.47 560.35 840.99 570.22 840.99 570.22C840.99 570.22 837.77 592.58 836.36 596.22C835.36 598.79 836.28 602.38 836.91 604.22C837.205 605.121 837.356 606.062 837.36 607.01V614.98C837.36 614.98 838.98 621.63 838.17 623.45C837.36 625.27 839.59 630.3 839.59 630.3Z" fill="#79B473"/>
<path opacity="0.1" d="M842.56 551.31C842.186 551.89 841.852 552.495 841.56 553.12L837.93 552.92C838.28 551.05 835.81 533.52 835.81 533.52L843.12 533.11C844.47 539.3 845.29 546.98 842.56 551.31Z" fill="black"/>
<path d="M843.16 550.7C842.79 551.286 842.456 551.893 842.16 552.52L838.53 552.31C838.88 550.45 836.41 532.91 836.41 532.91L843.72 532.5C845.08 538.7 845.89 546.38 843.16 550.7Z" fill="#79B473"/>
<path opacity="0.05" d="M843.16 550.7C842.79 551.286 842.456 551.893 842.16 552.52L838.53 552.31C838.88 550.45 836.41 532.91 836.41 532.91L843.72 532.5C845.08 538.7 845.89 546.38 843.16 550.7Z" fill="black"/>
<path opacity="0.1" d="M832.48 714.32C832.213 714.768 831.81 715.118 831.33 715.32C828.63 716.46 818.65 711.4 812.97 708.32C812.261 707.928 811.723 707.286 811.46 706.52C814.7 705.93 816.82 709.52 816.82 709.52C817.36 709.181 817.963 708.954 818.592 708.852C819.221 708.749 819.864 708.774 820.484 708.924C821.104 709.074 821.687 709.346 822.2 709.725C822.713 710.104 823.145 710.582 823.47 711.13C826.24 715.21 832.18 713.49 832.18 713.49L832.48 714.32Z" fill="black"/>
<path d="M834.15 726.67C833.55 728.49 829.01 728.49 829.01 728.49C829.01 728.49 820.9 730.81 817.27 732.62C813.64 734.43 811.18 733.48 811.18 733.48C802.87 735.39 792.18 732.07 788.96 731.41C785.74 730.75 784.48 726.58 788.46 725.77C788.97 725.665 789.469 725.511 789.95 725.31C791.944 724.447 793.67 723.066 794.95 721.31C797.644 718.72 800.478 716.28 803.44 714C805.478 712.486 807.273 710.668 808.76 708.61C813.5 704.43 816.87 710.17 816.87 710.17C817.411 709.832 818.014 709.605 818.643 709.504C819.273 709.402 819.917 709.427 820.536 709.578C821.156 709.729 821.739 710.003 822.252 710.383C822.764 710.762 823.195 711.241 823.52 711.79C826.29 715.87 832.23 714.14 832.23 714.14C832.23 714.14 833.3 716.87 833.8 718.83C833.92 719.33 834.05 719.95 834.17 720.65C834.44 722.68 834.61 725.31 834.15 726.67Z" fill="#FF748F"/>
<path d="M820.29 713.93C820.594 713.93 820.84 713.684 820.84 713.38C820.84 713.076 820.594 712.83 820.29 712.83C819.986 712.83 819.74 713.076 819.74 713.38C819.74 713.684 819.986 713.93 820.29 713.93Z" fill="#79B473"/>
<path d="M815.56 718.36C815.864 718.36 816.11 718.114 816.11 717.81C816.11 717.506 815.864 717.26 815.56 717.26C815.256 717.26 815.01 717.506 815.01 717.81C815.01 718.114 815.256 718.36 815.56 718.36Z" fill="#79B473"/>
<path d="M810.75 722.34C811.054 722.34 811.3 722.094 811.3 721.79C811.3 721.486 811.054 721.24 810.75 721.24C810.446 721.24 810.2 721.486 810.2 721.79C810.2 722.094 810.446 722.34 810.75 722.34Z" fill="#79B473"/>
<path d="M813.24 720.56C813.544 720.56 813.79 720.314 813.79 720.01C813.79 719.706 813.544 719.46 813.24 719.46C812.936 719.46 812.69 719.706 812.69 720.01C812.69 720.314 812.936 720.56 813.24 720.56Z" fill="#79B473"/>
<path d="M818.03 716.01C818.334 716.01 818.58 715.764 818.58 715.46C818.58 715.156 818.334 714.91 818.03 714.91C817.726 714.91 817.48 715.156 817.48 715.46C817.48 715.764 817.726 716.01 818.03 716.01Z" fill="#79B473"/>
<path d="M834.15 726.67C833.55 728.49 829.01 728.49 829.01 728.49C829.01 728.49 820.9 730.81 817.27 732.62C813.64 734.43 811.18 733.48 811.18 733.48C802.87 735.39 792.18 732.07 788.96 731.41C785.74 730.75 784.48 726.58 788.46 725.77C788.97 725.665 789.469 725.511 789.95 725.31C793.465 726.52 797.136 727.217 800.85 727.38C809.06 727.73 815.56 727.38 815.56 727.38L823.87 724.71C825.443 723.756 827.19 723.123 829.01 722.85C830.85 722.475 832.59 721.719 834.12 720.63C834.44 722.68 834.61 725.31 834.15 726.67Z" fill="#DCE6F2"/>
<path opacity="0.5" d="M813.47 731.88C813.007 731.883 812.544 731.84 812.09 731.75L812.21 731.16C813.909 731.42 815.647 731.177 817.21 730.46C817.95 730.17 818.69 729.82 819.41 729.46C820.13 729.1 821.14 728.65 822.04 728.32L822.86 728.04C823.31 727.88 823.77 727.73 824.21 727.54C824.46 727.44 824.71 727.32 824.95 727.2C825.54 726.891 826.164 726.653 826.81 726.49C827.141 726.428 827.474 726.385 827.81 726.36C828.118 726.339 828.425 726.303 828.73 726.25C829.335 726.097 829.922 725.879 830.48 725.6C831.077 725.293 831.708 725.058 832.36 724.9L832.8 724.83C833.274 724.818 833.731 724.649 834.1 724.35L834.55 724.76C834.091 725.163 833.51 725.399 832.9 725.43L832.48 725.5C831.873 725.649 831.286 725.867 830.73 726.15C830.13 726.448 829.5 726.679 828.85 726.84C828.52 726.905 828.186 726.945 827.85 726.96C827.535 726.983 827.221 727.023 826.91 727.08C826.309 727.236 825.729 727.46 825.18 727.75L824.42 728.1C823.96 728.29 823.48 728.45 823.02 728.61L822.22 728.89C821.34 729.21 820.48 729.62 819.64 730.01C818.8 730.4 818.16 730.71 817.4 731.01C816.155 731.541 814.822 731.836 813.47 731.88V731.88Z" fill="#79B473"/>
<path opacity="0.1" d="M815.41 631.76C815.41 631.76 819.59 625.76 826.75 625.76C833.91 625.76 836.97 624.95 836.97 624.95C836.97 624.95 832.39 627.67 829.22 628.02C826.05 628.37 815.41 631.76 815.41 631.76Z" fill="black"/>
<path opacity="0.1" d="M817.83 633.17C817.83 633.17 821.61 630.55 823.77 630.45C825.93 630.35 827.77 630.15 827.77 630.15C826.757 630.861 825.636 631.404 824.45 631.76C822.68 632.26 817.83 633.17 817.83 633.17Z" fill="black"/>
<path opacity="0.1" d="M818.68 634.98C818.68 634.98 824.37 635.43 824.42 636.98Z" fill="black"/>
<path opacity="0.1" d="M765.61 549.98C765.91 550.03 771 544.69 771.35 542.58C771.628 541.244 772.422 540.072 773.56 539.32C773.56 539.32 776.84 540.63 773.92 544.65C771 548.67 765.61 549.98 765.61 549.98Z" fill="black"/>
<path opacity="0.1" d="M843.68 377.19C842.52 379.93 841.5 380.19 841.68 382.8C840.33 384.23 838.777 385.453 837.07 386.43C833.47 388.57 829.55 392.76 825.07 392.76C822.068 392.762 819.093 392.199 816.3 391.1C815.58 385.41 813.44 382.94 813.44 382.94C813.44 382.94 848.96 364.76 843.68 377.19Z" fill="black"/>
<path d="M849.12 367.52C849.12 372.267 847.713 376.907 845.075 380.854C842.438 384.8 838.69 387.877 834.305 389.693C829.919 391.51 825.094 391.985 820.438 391.059C815.782 390.133 811.506 387.847 808.15 384.491C804.793 381.134 802.507 376.858 801.581 372.202C800.655 367.547 801.131 362.721 802.947 358.336C804.764 353.95 807.84 350.202 811.786 347.565C815.733 344.928 820.373 343.52 825.12 343.52C831.485 343.52 837.59 346.049 842.091 350.549C846.592 355.05 849.12 361.155 849.12 367.52V367.52Z" fill="#CC818C"/>
<path opacity="0.1" d="M850.68 402.89L842.97 414.37C842.97 414.37 806.54 431.75 813.5 411.37C816.56 402.37 816.92 395.8 816.37 391.25H816.43C816.861 392.758 817.106 394.313 817.16 395.88C817.27 399.02 817.35 402.99 825.16 404.3C838.16 406.48 845.1 398.36 846.32 396.77C847.566 398.95 849.027 401 850.68 402.89V402.89Z" fill="black"/>
<path opacity="0.1" d="M697.29 354.15L692.46 363.52C690.931 363.389 689.423 363.074 687.97 362.58L687.55 362.08C689.55 362.84 696.16 350.29 696.16 350.29L696.37 350.46C696.95 352.65 697.29 354.15 697.29 354.15Z" fill="black"/>
<path opacity="0.1" d="M843.08 529.75C827.52 536.51 773.7 530.75 773.7 530.75C773.861 530.177 773.952 529.586 773.97 528.99C775.43 526.75 776.52 525.41 776.52 525.41L841 522.89C841 522.89 842.05 525.76 843.08 529.75Z" fill="black"/>
<path d="M816.39 391.81L809.21 394.88C808.127 394.871 807.068 394.553 806.159 393.963C805.251 393.373 804.529 392.536 804.08 391.55C802.41 388.08 796.52 391.55 796.52 391.55C796.52 391.55 778.52 390.19 771.88 393.55C771.88 393.55 761.15 389.01 759.64 388.71C758.13 388.41 755.86 387.2 754.8 387.5C753.74 387.8 752.39 385.5 751.63 385.69C750.87 385.88 750.57 384.18 748.15 383.57C745.73 382.96 744.83 383.72 742.15 381C739.47 378.28 717.36 367.55 717.36 367.55L707.36 359.39L696.78 350.93C696.78 350.93 690.13 363.47 688.16 362.71L708.26 386.9C708.26 386.9 722.77 399.59 732.75 403.67C742.73 407.75 741.97 408.96 741.97 408.96C741.97 408.96 772.2 424.38 776.88 424.08C781.56 423.78 780.68 455.63 778.68 460.77C776.68 465.91 773.55 503.09 773.55 503.09C773.55 503.09 770.55 510.95 773.7 516.39C773.7 516.39 774.45 527.58 773.7 529.54C773.7 529.54 827.85 535.33 843.22 528.48C843.22 528.48 845.49 503.39 843.22 500.22C840.95 497.05 845.34 489.98 845.34 489.98L855.01 468.37L878.59 444.64C878.59 444.64 882.21 424.84 866.04 412.15L855.31 402.62C855.31 402.62 849.31 397.43 847.55 397.1C845.79 396.77 846.44 397.1 846.44 397.1C846.44 397.1 839.44 407.31 825.08 404.89C817.3 403.58 817.22 399.61 817.08 396.48C817.039 394.901 816.807 393.333 816.39 391.81V391.81Z" fill="#79B473"/>
<path opacity="0.1" d="M845.94 473.17C845.94 473.17 812.68 474.53 806.04 484.98C806.04 484.98 814.66 480.89 822.36 482.1C830.06 483.31 845.94 473.17 845.94 473.17Z" fill="black"/>
<path opacity="0.1" d="M809.21 509.59C809.21 509.59 824.93 510.65 828.26 507.32C831.59 503.99 831.6 502.03 831.6 502.03L809.21 509.59Z" fill="black"/>
<path opacity="0.1" d="M849.12 441.12C849.12 441.12 835.81 456.84 851.99 463.64L849.12 441.12Z" fill="black"/>
<path opacity="0.1" d="M770.37 410.75C770.37 410.75 775.21 420.62 777.63 421.27L770.37 410.75Z" fill="black"/>
<path opacity="0.1" d="M754.05 406.51C754.05 406.51 766.14 417.4 768.41 418.45C768.41 418.45 755.86 406.51 754.05 406.51Z" fill="black"/>
<path opacity="0.1" d="M802.26 396.09C802.26 396.09 790.62 413.47 798.18 424.09C798.18 424.05 793.95 411.5 802.26 396.09Z" fill="black"/>
<path d="M831.6 527.73L828.04 531.08L827.54 531.54L823.42 535.44C823.13 535.66 822.84 535.88 822.54 536.08C805.77 548.08 802.41 529.84 802.41 529.84C802.41 529.84 795.01 534.68 793.95 530.75C792.89 526.82 811.18 521.23 813.95 521.53C814.193 521.555 814.437 521.555 814.68 521.53C816.002 521.31 817.274 520.86 818.44 520.2L819.25 519.77C820.181 519.246 821.086 518.675 821.96 518.06L831.6 527.73Z" fill="#CC818C"/>
<path opacity="0.1" d="M849.68 367.52C849.689 371.683 848.615 375.776 846.564 379.398C844.513 383.02 841.555 386.047 837.98 388.18C837.645 387.619 837.351 387.034 837.1 386.43C836.24 384.43 835.71 382.27 834.84 380.26C833.889 378.066 832.532 376.071 830.84 374.38C830.554 374.045 830.185 373.79 829.77 373.64C829.381 373.586 828.986 373.613 828.607 373.718C828.229 373.823 827.876 374.004 827.57 374.25C826.552 374.94 825.417 375.438 824.22 375.72C823.621 375.857 822.997 375.838 822.409 375.662C821.82 375.487 821.286 375.162 820.86 374.72C819.92 373.6 820.05 371.96 820.32 370.53C820.91 367.4 821.89 364.32 821.9 361.14C821.91 357.96 820.69 354.54 817.9 352.96C815.46 351.57 812.43 351.96 809.72 351.18C809.301 351.07 808.889 350.93 808.49 350.76C811.822 347.34 816.098 344.992 820.771 344.016C825.445 343.039 830.303 343.479 834.726 345.278C839.148 347.078 842.933 350.155 845.597 354.117C848.261 358.079 849.683 362.746 849.68 367.52Z" fill="black"/>
<path d="M806.85 346.92C806.42 347.15 805.94 347.57 806.07 348.05C806.153 348.279 806.307 348.475 806.51 348.61C807.63 349.514 808.923 350.177 810.31 350.56C813.02 351.3 816.06 350.95 818.5 352.34C821.26 353.91 822.5 357.34 822.5 360.52C822.5 363.7 821.5 366.78 820.93 369.9C820.66 371.34 820.52 372.98 821.46 374.1C821.888 374.54 822.421 374.863 823.01 375.038C823.598 375.213 824.221 375.234 824.82 375.1C826.017 374.823 827.152 374.328 828.17 373.64C828.477 373.392 828.831 373.209 829.211 373.103C829.591 372.996 829.989 372.968 830.38 373.02C830.791 373.176 831.158 373.43 831.45 373.76C833.143 375.454 834.5 377.452 835.45 379.65C836.33 381.65 836.85 383.8 837.71 385.82C838.459 387.88 839.865 389.637 841.71 390.82C843.63 391.88 846.29 391.82 847.77 390.18C849.25 388.54 849.13 386.29 849.83 384.32C851.03 380.89 854.38 378.74 856.48 375.78C858.83 372.45 859.48 368.27 860.12 364.24C860.405 362.971 860.425 361.657 860.18 360.38C859.906 359.535 859.551 358.717 859.12 357.94C856.78 353.1 856.83 347.01 853.12 343.15C850.32 340.25 846.07 339.37 842.07 338.87C838.07 338.37 833.87 338.09 830.44 335.98C829.478 335.253 828.418 334.667 827.29 334.24C826.719 334.039 826.096 334.045 825.529 334.257C824.963 334.469 824.489 334.874 824.19 335.4C824.119 335.708 823.979 335.995 823.78 336.24C823.601 336.343 823.4 336.404 823.193 336.416C822.987 336.428 822.78 336.392 822.59 336.31L817.27 334.88L817.88 337.56C815.946 337.641 814.018 337.3 812.23 336.56C812.13 338.08 813.84 339.06 814.37 340.48C814.561 341.126 814.569 341.812 814.392 342.462C814.216 343.112 813.862 343.7 813.37 344.16C811.44 346.1 809.03 345.73 806.85 346.92Z" fill="#585268"/>
<path opacity="0.1" d="M785.29 708.04L785.07 710.45H784.98C776.31 715.29 758.38 701.79 758.38 701.79L760.25 699.92C760.557 700.26 760.788 700.662 760.93 701.097C761.071 701.533 761.119 701.994 761.07 702.45L764.73 702.65L769.11 707.38C769.11 707.38 780.96 708.75 784.17 707.99L785.29 708.04Z" fill="black"/>
<path d="M783.77 721.18C778.13 722.44 758.38 722.35 758.38 722.35L747.3 724.1C747.3 724.1 728.3 725.92 726.19 720.02C724.08 714.12 727.85 714.49 727.85 714.49H728L735.91 713.85C735.91 713.85 745.91 709.97 749.62 707.3C752.523 705.039 755.267 702.58 757.83 699.94C757.83 699.94 761.13 699.3 761.07 703.12L764.73 703.32L769.11 708.06C769.11 708.06 780.96 709.43 784.17 708.66H785.29L784.78 714.51L784.92 714.68C785.68 715.6 788.81 720.06 783.77 721.18Z" fill="#FF748F"/>
<path d="M763.32 707.07C763.624 707.07 763.87 706.824 763.87 706.52C763.87 706.216 763.624 705.97 763.32 705.97C763.016 705.97 762.77 706.216 762.77 706.52C762.77 706.824 763.016 707.07 763.32 707.07Z" fill="#79B473"/>
<path d="M749.11 713.23C749.414 713.23 749.66 712.984 749.66 712.68C749.66 712.376 749.414 712.13 749.11 712.13C748.806 712.13 748.56 712.376 748.56 712.68C748.56 712.984 748.806 713.23 749.11 713.23Z" fill="#79B473"/>
<path d="M741.79 715.45C742.094 715.45 742.34 715.204 742.34 714.9C742.34 714.596 742.094 714.35 741.79 714.35C741.486 714.35 741.24 714.596 741.24 714.9C741.24 715.204 741.486 715.45 741.79 715.45Z" fill="#79B473"/>
<path d="M752.84 712.05C753.144 712.05 753.39 711.804 753.39 711.5C753.39 711.196 753.144 710.95 752.84 710.95C752.536 710.95 752.29 711.196 752.29 711.5C752.29 711.804 752.536 712.05 752.84 712.05Z" fill="#79B473"/>
<path d="M745.44 714.34C745.744 714.34 745.99 714.094 745.99 713.79C745.99 713.486 745.744 713.24 745.44 713.24C745.136 713.24 744.89 713.486 744.89 713.79C744.89 714.094 745.136 714.34 745.44 714.34Z" fill="#79B473"/>
<path d="M756.61 710.3C756.914 710.3 757.16 710.054 757.16 709.75C757.16 709.446 756.914 709.2 756.61 709.2C756.306 709.2 756.06 709.446 756.06 709.75C756.06 710.054 756.306 710.3 756.61 710.3Z" fill="#79B473"/>
<path d="M760.34 708.68C760.644 708.68 760.89 708.434 760.89 708.13C760.89 707.826 760.644 707.58 760.34 707.58C760.036 707.58 759.79 707.826 759.79 708.13C759.79 708.434 760.036 708.68 760.34 708.68Z" fill="#79B473"/>
<path d="M783.77 721.18C778.13 722.44 758.38 722.35 758.38 722.35L747.3 724.1C747.3 724.1 728.3 725.92 726.19 720.02C724.08 714.12 727.85 714.49 727.85 714.49H728C729.21 716.06 731.64 717.84 736.41 717.93L750.07 718.48L764.22 717.48C764.22 717.48 777.48 717.09 779.64 716.63C781.454 716.142 783.221 715.492 784.92 714.69C785.68 715.6 788.81 720.06 783.77 721.18Z" fill="#DCE6F2"/>
<path opacity="0.5" d="M748.37 722.77C747.614 722.78 746.86 722.686 746.13 722.49L746.29 721.91C748.154 722.31 750.089 722.224 751.91 721.66C752.58 721.48 753.24 721.29 753.91 721.09C755.12 720.706 756.352 720.395 757.6 720.16C759.615 719.898 761.652 719.838 763.68 719.98H764.11C770.168 720.298 776.244 720.027 782.25 719.17C783.675 719.071 785.033 718.525 786.13 717.61L786.56 718.04C785.375 719.047 783.901 719.652 782.35 719.77C776.304 720.632 770.188 720.903 764.09 720.58H763.65C761.649 720.44 759.639 720.5 757.65 720.76C756.429 720.988 755.223 721.292 754.04 721.67C753.37 721.87 752.7 722.07 752.04 722.24C750.843 722.566 749.61 722.744 748.37 722.77V722.77Z" fill="#79B473"/>
<path opacity="0.1" d="M831.6 527.73L828.04 531.08L819.2 519.76C820.132 519.235 821.036 518.665 821.91 518.05L831.6 527.73Z" fill="black"/>
<path d="M871.68 434.98L878.68 444.65V454.78C878.68 454.78 881.85 465.51 878.68 476.24L879.02 485.61C879.02 485.61 875.65 494.22 876.86 496.34C876.86 496.34 876.26 502.69 868.1 507.07C859.94 511.45 850.68 521.83 850.68 521.83C850.68 521.83 847.2 528.48 837.83 526.97L828.91 530.75L818.64 517.6L832.54 510.04C832.54 510.04 837.38 503.55 840.25 503.85L852.04 490.09C852.04 490.09 852.34 485.71 855.36 485.71C855.36 485.71 849.77 481.18 851.73 478.46C853.69 475.74 852.04 463.64 852.04 463.64L871.68 434.98Z" fill="#79B473"/>
<path opacity="0.1" d="M858.68 479.06C858.68 479.06 874.55 478.76 876.51 482.84C878.47 486.92 863.47 476.79 858.68 479.06Z" fill="black"/>
<path opacity="0.1" d="M827.61 530.75C827.612 531.015 827.588 531.28 827.54 531.54C827.357 532.757 826.76 533.874 825.849 534.701C824.938 535.528 823.769 536.015 822.54 536.08H822.26C820.844 536.08 819.485 535.518 818.484 534.516C817.482 533.515 816.92 532.156 816.92 530.74C816.921 530.151 817.022 529.566 817.22 529.01C814.7 527.01 814.56 523.33 814.63 521.51C815.951 521.29 817.224 520.84 818.39 520.18C819.047 522.069 819.93 523.872 821.02 525.55C821.426 525.454 821.842 525.404 822.26 525.4C822.962 525.4 823.658 525.539 824.307 525.807C824.956 526.076 825.546 526.47 826.043 526.967C826.54 527.464 826.934 528.054 827.203 528.703C827.471 529.352 827.61 530.048 827.61 530.75V530.75Z" fill="black"/>
<path d="M818.87 518.98C818.87 518.98 815.29 519.79 815.29 520.44C815.29 521.09 814.48 526.99 818.41 529.44C822.34 531.89 821.94 526.06 821.94 526.06C821.94 526.06 818.56 520.88 818.87 518.98Z" fill="#79B473"/>
<path d="M822.86 536.09C825.809 536.09 828.2 533.699 828.2 530.75C828.2 527.801 825.809 525.41 822.86 525.41C819.911 525.41 817.52 527.801 817.52 530.75C817.52 533.699 819.911 536.09 822.86 536.09Z" fill="#E4AAB4"/>
<path d="M822.86 535.33C825.39 535.33 827.44 533.279 827.44 530.75C827.44 528.22 825.39 526.17 822.86 526.17C820.331 526.17 818.28 528.22 818.28 530.75C818.28 533.279 820.331 535.33 822.86 535.33Z" fill="#DCE6F2"/>
<path opacity="0.1" d="M802.06 532.82C802.06 532.82 813.35 542.18 827.85 536.24V540.78C827.85 540.78 818.18 547.43 809.42 543.4C800.66 539.37 802.06 532.82 802.06 532.82Z" fill="black"/>
<path opacity="0.1" d="M802.06 531.61C802.06 531.61 813.35 540.98 827.85 535.03V539.57C827.85 539.57 818.18 546.22 809.42 542.19C800.66 538.16 802.06 531.61 802.06 531.61Z" fill="black"/>
<path d="M802.06 531.61C802.06 531.61 813.35 540.98 827.85 535.03V539.57C827.85 539.57 818.18 546.22 809.42 542.19C800.66 538.16 802.06 531.61 802.06 531.61Z" fill="#79B473"/>
<path opacity="0.05" d="M802.36 531.61C802.36 531.61 813.65 540.98 828.16 535.03V539.57C828.16 539.57 818.49 546.22 809.72 542.19C800.95 538.16 802.36 531.61 802.36 531.61Z" fill="black"/>
<path opacity="0.1" d="M766.59 699.92C766.59 699.92 781.71 702.7 783.92 703.3C786.13 703.9 783.32 704.96 783.32 704.96C783.32 704.96 769.52 702.49 766.59 699.92Z" fill="black"/>
<path opacity="0.1" d="M766.24 691.91C766.49 691.91 776.52 689.09 778.68 684.26Z" fill="black"/>
<path opacity="0.1" d="M780.87 634.08C780.87 634.08 784.93 639.42 787.55 639.27C790.17 639.12 783.25 633.88 780.87 634.08Z" fill="black"/>
<path opacity="0.1" d="M783.12 642.98C783.12 642.98 784.83 646.75 787.35 645.54Z" fill="black"/>
<path opacity="0.05" d="M792.68 559.98L803.4 588.25C803.4 588.25 804.91 570.06 801.72 564.62C800.814 563.064 799.481 561.8 797.879 560.978C796.277 560.156 794.473 559.809 792.68 559.98V559.98Z" fill="black"/>
<g opacity="0.1">
<path opacity="0.1" d="M819.02 335.98L818.93 335.57L817.21 335.11L817.4 335.95C817.939 335.99 818.48 336 819.02 335.98V335.98Z" fill="black"/>
<path opacity="0.1" d="M814.29 342.8L814.47 342.64C814.963 342.18 815.317 341.592 815.494 340.942C815.671 340.292 815.662 339.606 815.47 338.96C815.262 338.458 814.972 337.995 814.61 337.59C813.763 337.423 812.933 337.178 812.13 336.86C812.03 338.37 813.73 339.35 814.26 340.77C814.506 341.422 814.516 342.14 814.29 342.8V342.8Z" fill="black"/>
<path opacity="0.1" d="M842.88 389.27C841.016 388.095 839.592 386.337 838.83 384.27C837.98 382.27 837.45 380.11 836.58 378.11C835.63 375.912 834.273 373.914 832.58 372.22C832.291 371.887 831.923 371.633 831.51 371.48C831.121 371.429 830.726 371.456 830.348 371.561C829.97 371.666 829.617 371.846 829.31 372.09C828.292 372.78 827.157 373.278 825.96 373.56C825.361 373.695 824.738 373.674 824.149 373.499C823.561 373.324 823.027 373.001 822.6 372.56C821.66 371.44 821.79 369.79 822.06 368.36C822.65 365.24 823.63 362.15 823.64 358.98C823.65 355.81 822.43 352.37 819.64 350.8C817.2 349.41 814.17 349.8 811.46 349.02C810.07 348.638 808.773 347.974 807.65 347.07C807.579 347.012 807.512 346.948 807.45 346.88C807.223 346.967 807.002 347.071 806.79 347.19C806.35 347.42 805.88 347.84 806 348.32C806.09 348.547 806.247 348.743 806.45 348.88C807.568 349.786 808.862 350.45 810.25 350.83C812.96 351.57 815.99 351.22 818.43 352.61C821.19 354.18 822.43 357.61 822.43 360.79C822.43 363.97 821.43 367.05 820.85 370.17C820.58 371.61 820.45 373.25 821.39 374.37C821.817 374.811 822.351 375.134 822.939 375.309C823.528 375.484 824.151 375.505 824.75 375.37C825.947 375.093 827.082 374.598 828.1 373.91C828.405 373.662 828.758 373.48 829.136 373.373C829.514 373.267 829.91 373.238 830.3 373.29C830.713 373.444 831.08 373.698 831.37 374.03C833.059 375.727 834.415 377.724 835.37 379.92C836.25 381.92 836.77 384.07 837.63 386.09C838.379 388.15 839.785 389.907 841.63 391.09C843.54 392.15 846.21 392.09 847.63 390.45C848.023 390.005 848.329 389.489 848.53 388.93C847.724 389.531 846.76 389.883 845.756 389.944C844.752 390.004 843.752 389.77 842.88 389.27V389.27Z" fill="black"/>
<path opacity="0.1" d="M851.52 381.58C853.03 379.67 855.02 378.04 856.44 376.04C856.72 375.64 856.98 375.22 857.22 374.8C855.39 377.13 852.88 378.98 851.52 381.58Z" fill="black"/>
</g>
</g>
<defs>
<linearGradient id="paint0_linear" x1="777.56" y1="734.06" x2="777.56" y2="330.68" gradientUnits="userSpaceOnUse">
<stop stop-color="#808080" stop-opacity="0.25"/>
<stop offset="0.54" stop-color="#808080" stop-opacity="0.12"/>
<stop offset="1" stop-color="#808080" stop-opacity="0.1"/>
</linearGradient>
<clipPath id="clip0">
<rect width="1027.35" height="783.97" fill="white"/>
</clipPath>
</defs>
</svg>
