<svg width="50" height="50" viewBox="0 0 50 50" fill="none" xmlns="http://www.w3.org/2000/svg">
<g clip-path="url(#clip0_51:21)">
<path d="M33.9188 19.2064C34.0643 19.3515 34.1797 19.5239 34.2585 19.7138C34.3373 19.9036 34.3778 20.1071 34.3778 20.3126C34.3778 20.5181 34.3373 20.7216 34.2585 20.9115C34.1797 21.1013 34.0643 21.2737 33.9188 21.4189L24.5438 30.7939C24.3986 30.9394 24.2262 31.0548 24.0364 31.1336C23.8465 31.2124 23.643 31.2529 23.4375 31.2529C23.232 31.2529 23.0285 31.2124 22.8387 31.1336C22.6488 31.0548 22.4764 30.9394 22.3313 30.7939L17.6438 26.1064C17.4985 25.9611 17.3833 25.7886 17.3046 25.5988C17.226 25.409 17.1855 25.2056 17.1855 25.0001C17.1855 24.7947 17.226 24.5912 17.3046 24.4014C17.3833 24.2116 17.4985 24.0391 17.6438 23.8939C17.789 23.7486 17.9615 23.6333 18.1513 23.5547C18.3411 23.4761 18.5446 23.4356 18.75 23.4356C18.9555 23.4356 19.1589 23.4761 19.3487 23.5547C19.5385 23.6333 19.711 23.7486 19.8563 23.8939L23.4375 27.4782L31.7063 19.2064C31.8514 19.0608 32.0238 18.9454 32.2137 18.8666C32.4035 18.7879 32.607 18.7473 32.8125 18.7473C33.018 18.7473 33.2215 18.7879 33.4114 18.8666C33.6012 18.9454 33.7736 19.0608 33.9188 19.2064V19.2064Z" fill="#79B473"/>
<path d="M12.5 0C10.8424 0 9.25268 0.65848 8.08058 1.83058C6.90848 3.00269 6.25 4.5924 6.25 6.25V43.75C6.25 45.4076 6.90848 46.9973 8.08058 48.1694C9.25268 49.3415 10.8424 50 12.5 50H37.5C39.1576 50 40.7473 49.3415 41.9194 48.1694C43.0915 46.9973 43.75 45.4076 43.75 43.75V6.25C43.75 4.5924 43.0915 3.00269 41.9194 1.83058C40.7473 0.65848 39.1576 0 37.5 0L12.5 0ZM12.5 3.125H37.5C38.3288 3.125 39.1237 3.45424 39.7097 4.04029C40.2958 4.62634 40.625 5.4212 40.625 6.25V43.75C40.625 44.5788 40.2958 45.3737 39.7097 45.9597C39.1237 46.5458 38.3288 46.875 37.5 46.875H12.5C11.6712 46.875 10.8763 46.5458 10.2903 45.9597C9.70424 45.3737 9.375 44.5788 9.375 43.75V6.25C9.375 5.4212 9.70424 4.62634 10.2903 4.04029C10.8763 3.45424 11.6712 3.125 12.5 3.125V3.125Z" fill="#79B473"/>
</g>
<defs>
<clipPath id="clip0_51:21">
<rect width="50" height="50" fill="white"/>
</clipPath>
</defs>
</svg>
