<svg width="236" height="63" viewBox="0 0 236 63" fill="none" xmlns="http://www.w3.org/2000/svg">
<g clip-path="url(#clip0)">
<path d="M235.056 0.945007H0.944V62.055H235.056V0.945007Z" stroke="#79B473" stroke-width="3"/>
<path d="M39.1798 45.99L39.1395 25.4268L28.9493 42.5628H27.0966L16.9064 25.5477V45.99H13.0398V17.766H16.3425L28.1035 37.6034L39.7034 17.766H43.0061L43.0464 45.99H39.1798ZM60.7313 24.4188C63.6848 24.4188 65.9403 25.1445 67.4979 26.5961C69.0819 28.0476 69.8743 30.2114 69.8743 33.0876V45.99H66.209V43.1676C65.5646 44.1622 64.6382 44.9282 63.4299 45.4658C62.2484 45.9766 60.8387 46.2319 59.2008 46.2319C56.811 46.2319 54.8911 45.654 53.4411 44.4981C52.018 43.3423 51.3064 41.8236 51.3064 39.942C51.3064 38.0604 51.9911 36.5551 53.3605 35.4261C54.73 34.2703 56.9049 33.6924 59.8855 33.6924H66.0076V32.9263C66.0076 31.2598 65.5243 29.9829 64.5576 29.0959C63.591 28.2089 62.1679 27.7653 60.2882 27.7653C59.0262 27.7653 57.791 27.9804 56.5827 28.4105C55.3744 28.8137 54.3541 29.3647 53.5217 30.0636L51.9106 27.1605C53.0115 26.2735 54.3272 25.6015 55.8577 25.1445C57.3883 24.6607 59.0128 24.4188 60.7313 24.4188ZM59.8452 43.2482C61.3221 43.2482 62.5975 42.9257 63.6715 42.2805C64.7458 41.6085 65.5243 40.6677 66.0076 39.4581V36.4745H60.0466C56.7707 36.4745 55.1328 37.5765 55.1328 39.7807C55.1328 40.8559 55.5489 41.7026 56.3813 42.3209C57.2138 42.9391 58.3683 43.2482 59.8452 43.2482ZM98.4573 45.99L92.3754 37.3212C91.6234 37.3749 91.0331 37.4018 90.6032 37.4018H83.6353V45.99H79.6075V17.766H90.6032C94.2553 17.766 97.1282 18.6396 99.2226 20.3868C101.317 22.134 102.364 24.5398 102.364 27.6041C102.364 29.7813 101.827 31.6361 100.753 33.1682C99.6789 34.7004 98.1483 35.8159 96.1615 36.5148L102.848 45.99H98.4573ZM90.4824 33.9746C93.0331 33.9746 94.9802 33.4236 96.3226 32.3215C97.665 31.2194 98.3365 29.647 98.3365 27.6041C98.3365 25.5612 97.665 24.0022 96.3226 22.9269C94.9802 21.8249 93.0331 21.2738 90.4824 21.2738H83.6353V33.9746H90.4824ZM129.614 35.4261C129.614 35.7218 129.587 36.1116 129.534 36.5954H112.215C112.456 38.477 113.275 39.9957 114.671 41.1516C116.094 42.2805 117.853 42.845 119.948 42.845C122.498 42.845 124.553 41.9849 126.11 40.2645L128.245 42.7644C127.278 43.8933 126.07 44.7535 124.62 45.3449C123.197 45.9362 121.599 46.2319 119.827 46.2319C117.571 46.2319 115.571 45.775 113.826 44.861C112.08 43.9202 110.724 42.6165 109.758 40.95C108.818 39.2834 108.348 37.4018 108.348 35.3052C108.348 33.2354 108.804 31.3672 109.717 29.7007C110.657 28.0342 111.933 26.7439 113.544 25.83C115.182 24.8892 117.021 24.4188 119.062 24.4188C121.103 24.4188 122.915 24.8892 124.499 25.83C126.11 26.7439 127.359 28.0342 128.245 29.7007C129.158 31.3672 129.614 33.2758 129.614 35.4261ZM119.062 27.6847C117.209 27.6847 115.651 28.2492 114.39 29.3781C113.154 30.5071 112.429 31.9855 112.215 33.8133H125.909C125.694 32.0124 124.955 30.5474 123.694 29.4185C122.458 28.2626 120.914 27.6847 119.062 27.6847ZM146.302 46.2319C144.127 46.2319 142.18 45.7615 140.462 44.8207C138.77 43.8799 137.441 42.5897 136.474 40.95C135.507 39.2834 135.024 37.4018 135.024 35.3052C135.024 33.2085 135.507 31.3404 136.474 29.7007C137.441 28.0342 138.77 26.7439 140.462 25.83C142.18 24.8892 144.127 24.4188 146.302 24.4188C148.235 24.4188 149.953 24.8086 151.457 25.5881C152.988 26.3676 154.169 27.4965 155.002 28.9749L152.061 30.87C151.39 29.8486 150.557 29.0825 149.564 28.5717C148.571 28.061 147.47 27.8057 146.261 27.8057C144.865 27.8057 143.603 28.1148 142.475 28.733C141.374 29.3512 140.502 30.2383 139.857 31.3941C139.239 32.5231 138.931 33.8268 138.931 35.3052C138.931 36.8104 139.239 38.141 139.857 39.2969C140.502 40.4258 141.374 41.2994 142.475 41.9177C143.603 42.5359 144.865 42.845 146.261 42.845C147.47 42.845 148.571 42.5897 149.564 42.0789C150.557 41.5682 151.39 40.8021 152.061 39.7807L155.002 41.6354C154.169 43.1138 152.988 44.2562 151.457 45.0626C149.953 45.8421 148.235 46.2319 146.302 46.2319ZM186.17 24.4188C188.237 24.4188 190.09 24.8757 191.728 25.7897C193.366 26.7036 194.641 27.9804 195.555 29.6201C196.494 31.2598 196.964 33.1548 196.964 35.3052C196.964 37.4556 196.494 39.3641 195.555 41.0306C194.641 42.6703 193.366 43.9471 191.728 44.861C190.09 45.775 188.237 46.2319 186.17 46.2319C184.64 46.2319 183.23 45.9362 181.941 45.3449C180.678 44.7535 179.605 43.8933 178.719 42.7644V53.8121H174.852V24.6204H178.558V28.0073C179.417 26.8246 180.504 25.9375 181.82 25.3461C183.135 24.7279 184.585 24.4188 186.17 24.4188ZM185.848 42.845C187.217 42.845 188.439 42.5359 189.513 41.9177C190.614 41.2725 191.473 40.3855 192.091 39.2565C192.735 38.1007 193.057 36.7836 193.057 35.3052C193.057 33.8268 192.735 32.5231 192.091 31.3941C191.473 30.2383 190.614 29.3512 189.513 28.733C188.439 28.1148 187.217 27.8057 185.848 27.8057C184.505 27.8057 183.283 28.1282 182.183 28.7733C181.108 29.3916 180.249 30.2652 179.605 31.3941C178.987 32.5231 178.678 33.8268 178.678 35.3052C178.678 36.7836 178.987 38.1007 179.605 39.2565C180.222 40.3855 181.081 41.2725 182.183 41.9177C183.283 42.5359 184.505 42.845 185.848 42.845ZM223.613 35.4261C223.613 35.7218 223.586 36.1116 223.532 36.5954H206.213C206.455 38.477 207.274 39.9957 208.67 41.1516C210.093 42.2805 211.852 42.845 213.946 42.845C216.498 42.845 218.552 41.9849 220.109 40.2645L222.243 42.7644C221.277 43.8933 220.068 44.7535 218.618 45.3449C217.196 45.9362 215.598 46.2319 213.825 46.2319C211.57 46.2319 209.57 45.775 207.824 44.861C206.079 43.9202 204.723 42.6165 203.756 40.95C202.817 39.2834 202.346 37.4018 202.346 35.3052C202.346 33.2354 202.803 31.3672 203.716 29.7007C204.656 28.0342 205.931 26.7439 207.542 25.83C209.18 24.8892 211.02 24.4188 213.06 24.4188C215.101 24.4188 216.914 24.8892 218.498 25.83C220.109 26.7439 221.357 28.0342 222.243 29.7007C223.157 31.3672 223.613 33.2758 223.613 35.4261ZM213.06 27.6847C211.207 27.6847 209.65 28.2492 208.388 29.3781C207.153 30.5071 206.428 31.9855 206.213 33.8133H219.907C219.693 32.0124 218.955 30.5474 217.692 29.4185C216.457 28.2626 214.913 27.6847 213.06 27.6847Z" fill="black"/>
<path fill-rule="evenodd" clip-rule="evenodd" d="M170.378 17.2488C170.344 12.4986 167.536 6.94985 164.449 6.97196C161.362 6.99407 158.632 12.5825 158.666 17.3327C158.695 21.4448 161.194 23.2694 163.826 24.0998C163.826 24.0998 164.568 35.7726 162.407 44.8104C161.951 46.7386 163.818 48.0325 164.851 48.0251C165.868 48.0178 167.702 46.7282 167.224 44.8403C164.938 35.721 165.391 24.1632 165.391 24.1632C167.9 23.1854 170.406 21.2502 170.378 17.2488Z" fill="#79B473"/>
</g>
<defs>
<clipPath id="clip0">
<rect width="236" height="63" fill="white"/>
</clipPath>
</defs>
</svg>
