<svg width="375" height="100" viewBox="0 0 375 100" fill="none" xmlns="http://www.w3.org/2000/svg">
<rect x="1.5" y="1.5" width="372" height="97" stroke="#79B473" stroke-width="3"/>
<path d="M62.256 73L62.192 40.36L46 67.56H43.056L26.864 40.552V73H20.72V28.2H25.968L44.656 59.688L63.088 28.2H68.336L68.4 73H62.256ZM96.501 38.76C101.194 38.76 104.778 39.912 107.253 42.216C109.77 44.52 111.029 47.9547 111.029 52.52V73H105.205V68.52C104.181 70.0987 102.709 71.3147 100.789 72.168C98.9117 72.9787 96.6717 73.384 94.069 73.384C90.2717 73.384 87.221 72.4667 84.917 70.632C82.6557 68.7973 81.525 66.3867 81.525 63.4C81.525 60.4133 82.613 58.024 84.789 56.232C86.965 54.3973 90.421 53.48 95.157 53.48H104.885V52.264C104.885 49.6187 104.117 47.592 102.581 46.184C101.045 44.776 98.7837 44.072 95.797 44.072C93.7917 44.072 91.829 44.4133 89.909 45.096C87.989 45.736 86.3677 46.6107 85.045 47.72L82.485 43.112C84.2343 41.704 86.325 40.6373 88.757 39.912C91.189 39.144 93.7703 38.76 96.501 38.76ZM95.093 68.648C97.4397 68.648 99.4663 68.136 101.173 67.112C102.88 66.0453 104.117 64.552 104.885 62.632V57.896H95.413C90.2077 57.896 87.605 59.6453 87.605 63.144C87.605 64.8507 88.2663 66.1947 89.589 67.176C90.9117 68.1573 92.7463 68.648 95.093 68.648ZM156.447 73L146.783 59.24C145.588 59.3253 144.65 59.368 143.967 59.368H132.895V73H126.495V28.2H143.967C149.77 28.2 154.335 29.5867 157.663 32.36C160.991 35.1333 162.655 38.952 162.655 43.816C162.655 47.272 161.802 50.216 160.095 52.648C158.388 55.08 155.956 56.8507 152.799 57.96L163.423 73H156.447ZM143.775 53.928C147.828 53.928 150.922 53.0533 153.055 51.304C155.188 49.5547 156.255 47.0587 156.255 43.816C156.255 40.5733 155.188 38.0987 153.055 36.392C150.922 34.6427 147.828 33.768 143.775 33.768H132.895V53.928H143.775ZM205.955 56.232C205.955 56.7013 205.912 57.32 205.827 58.088H178.307C178.691 61.0747 179.992 63.4853 182.211 65.32C184.472 67.112 187.267 68.008 190.595 68.008C194.648 68.008 197.912 66.6427 200.387 63.912L203.779 67.88C202.243 69.672 200.323 71.0373 198.019 71.976C195.758 72.9147 193.219 73.384 190.403 73.384C186.819 73.384 183.64 72.6587 180.867 71.208C178.094 69.7147 175.939 67.6453 174.403 65C172.91 62.3547 172.163 59.368 172.163 56.04C172.163 52.7547 172.888 49.7893 174.339 47.144C175.832 44.4987 177.859 42.4507 180.419 41C183.022 39.5067 185.944 38.76 189.187 38.76C192.43 38.76 195.31 39.5067 197.827 41C200.387 42.4507 202.371 44.4987 203.779 47.144C205.23 49.7893 205.955 52.8187 205.955 56.232ZM189.187 43.944C186.243 43.944 183.768 44.84 181.763 46.632C179.8 48.424 178.648 50.7707 178.307 53.672H200.067C199.726 50.8133 198.552 48.488 196.547 46.696C194.584 44.8613 192.131 43.944 189.187 43.944ZM232.471 73.384C229.015 73.384 225.921 72.6373 223.191 71.144C220.503 69.6507 218.391 67.6027 216.855 65C215.319 62.3547 214.551 59.368 214.551 56.04C214.551 52.712 215.319 49.7467 216.855 47.144C218.391 44.4987 220.503 42.4507 223.191 41C225.921 39.5067 229.015 38.76 232.471 38.76C235.543 38.76 238.273 39.3787 240.663 40.616C243.095 41.8533 244.972 43.6453 246.295 45.992L241.623 49C240.556 47.3787 239.233 46.1627 237.655 45.352C236.076 44.5413 234.327 44.136 232.407 44.136C230.188 44.136 228.183 44.6267 226.391 45.608C224.641 46.5893 223.255 47.9973 222.231 49.832C221.249 51.624 220.759 53.6933 220.759 56.04C220.759 58.4293 221.249 60.5413 222.231 62.376C223.255 64.168 224.641 65.5547 226.391 66.536C228.183 67.5173 230.188 68.008 232.407 68.008C234.327 68.008 236.076 67.6027 237.655 66.792C239.233 65.9813 240.556 64.7653 241.623 63.144L246.295 66.088C244.972 68.4347 243.095 70.248 240.663 71.528C238.273 72.7653 235.543 73.384 232.471 73.384ZM295.821 38.76C299.106 38.76 302.05 39.4853 304.653 40.936C307.255 42.3867 309.282 44.4133 310.733 47.016C312.226 49.6187 312.973 52.6267 312.973 56.04C312.973 59.4533 312.226 62.4827 310.733 65.128C309.282 67.7307 307.255 69.7573 304.653 71.208C302.05 72.6587 299.106 73.384 295.821 73.384C293.389 73.384 291.149 72.9147 289.101 71.976C287.095 71.0373 285.389 69.672 283.981 67.88V85.416H277.837V39.08H283.725V44.456C285.09 42.5787 286.818 41.1707 288.909 40.232C290.999 39.2507 293.303 38.76 295.821 38.76ZM295.309 68.008C297.485 68.008 299.426 67.5173 301.133 66.536C302.882 65.512 304.247 64.104 305.229 62.312C306.253 60.4773 306.765 58.3867 306.765 56.04C306.765 53.6933 306.253 51.624 305.229 49.832C304.247 47.9973 302.882 46.5893 301.133 45.608C299.426 44.6267 297.485 44.136 295.309 44.136C293.175 44.136 291.234 44.648 289.485 45.672C287.778 46.6533 286.413 48.04 285.389 49.832C284.407 51.624 283.917 53.6933 283.917 56.04C283.917 58.3867 284.407 60.4773 285.389 62.312C286.37 64.104 287.735 65.512 289.485 66.536C291.234 67.5173 293.175 68.008 295.309 68.008ZM355.317 56.232C355.317 56.7013 355.275 57.32 355.189 58.088H327.669C328.053 61.0747 329.355 63.4853 331.573 65.32C333.835 67.112 336.629 68.008 339.957 68.008C344.011 68.008 347.275 66.6427 349.749 63.912L353.141 67.88C351.605 69.672 349.685 71.0373 347.381 71.976C345.12 72.9147 342.581 73.384 339.765 73.384C336.181 73.384 333.003 72.6587 330.229 71.208C327.456 69.7147 325.301 67.6453 323.765 65C322.272 62.3547 321.525 59.368 321.525 56.04C321.525 52.7547 322.251 49.7893 323.701 47.144C325.195 44.4987 327.221 42.4507 329.781 41C332.384 39.5067 335.307 38.76 338.549 38.76C341.792 38.76 344.672 39.5067 347.189 41C349.749 42.4507 351.733 44.4987 353.141 47.144C354.592 49.7893 355.317 52.8187 355.317 56.232ZM338.549 43.944C335.605 43.944 333.131 44.84 331.125 46.632C329.163 48.424 328.011 50.7707 327.669 53.672H349.429C349.088 50.8133 347.915 48.488 345.909 46.696C343.947 44.8613 341.493 43.944 338.549 43.944Z" fill="white"/>
<path fill-rule="evenodd" clip-rule="evenodd" d="M270.728 27.379C270.674 19.839 266.212 11.0315 261.307 11.0666C256.402 11.1017 252.063 19.9722 252.117 27.5122C252.164 34.0393 256.134 36.9356 260.317 38.2537C260.317 38.2537 261.496 56.7819 258.062 71.1276C257.338 74.1882 260.304 76.242 261.946 76.2303C263.562 76.2187 266.476 74.1718 265.716 71.175C262.084 56.7 262.804 38.3543 262.804 38.3543C266.79 36.8022 270.773 33.7305 270.728 27.379Z" fill="#79B473"/>
</svg>
