<svg width="44" height="44" viewBox="0 0 44 44" fill="none" xmlns="http://www.w3.org/2000/svg">
<path d="M23.65 19.25C22.55 18.975 21.45 18.425 20.625 17.6C19.8 17.325 19.525 16.5 19.525 15.95C19.525 15.4 19.8 14.575 20.35 14.3C21.175 13.75 22 13.2 22.825 13.475C24.475 13.475 25.85 14.3 26.675 15.4L29.15 12.1C28.325 11.275 27.5 10.725 26.675 10.175C25.85 9.625 24.75 9.35 23.65 9.35V5.5H20.35V9.35C18.975 9.625 17.6 10.45 16.5 11.55C15.4 12.925 14.575 14.575 14.85 16.225C14.85 17.875 15.4 19.525 16.5 20.625C17.875 22 19.8 22.825 21.45 23.65C22.275 23.925 23.375 24.475 24.2 25.025C24.75 25.575 25.025 26.4 25.025 27.225C25.025 28.05 24.75 28.875 24.2 29.7C23.375 30.525 22.275 30.8 21.45 30.8C20.35 30.8 18.975 30.525 18.15 29.7C17.325 29.15 16.5 28.325 15.95 27.5L13.2 30.525C14.025 31.625 14.85 32.45 15.95 33.275C17.325 34.1 18.975 34.925 20.625 34.925V38.5H23.65V34.375C25.3 34.1 26.675 33.275 27.775 32.175C29.15 30.8 29.975 28.6 29.975 26.675C29.975 25.025 29.425 23.1 28.05 22C26.675 20.625 25.3 19.8 23.65 19.25V19.25ZM22 0C9.9 0 0 9.9 0 22C0 34.1 9.9 44 22 44C34.1 44 44 34.1 44 22C44 9.9 34.1 0 22 0ZM22 40.975C11.55 40.975 3.025 32.45 3.025 22C3.025 11.55 11.55 3.025 22 3.025C32.45 3.025 40.975 11.55 40.975 22C40.975 32.45 32.45 40.975 22 40.975V40.975Z" fill="#79B473"/>
</svg>
