<svg width="828" height="667" viewBox="0 0 828 667" fill="none" xmlns="http://www.w3.org/2000/svg">
<g clip-path="url(#clip0)">
<path d="M646.4 322H459.21C454.949 321.987 450.837 320.434 447.632 317.627L370.529 249.625C367.882 247.287 364.472 245.998 360.94 246H294.4V16.5C294.405 12.1254 296.145 7.93147 299.238 4.8382C302.331 1.74492 306.525 0.00494413 310.9 0H629.9C634.275 0.00494149 638.468 1.74492 641.562 4.8382C644.655 7.93148 646.395 12.1254 646.4 16.5L646.4 322Z" fill="#E6E6E6"/>
<path d="M370.9 106.5C390.23 106.5 405.9 90.83 405.9 71.5C405.9 52.17 390.23 36.5 370.9 36.5C351.57 36.5 335.9 52.17 335.9 71.5C335.9 90.83 351.57 106.5 370.9 106.5Z" fill="white"/>
<path d="M506.9 52.75H441.9C440.706 52.75 439.562 53.2241 438.718 54.068C437.874 54.9119 437.4 56.0565 437.4 57.25C437.4 58.4435 437.874 59.5881 438.718 60.432C439.562 61.2759 440.706 61.75 441.9 61.75H506.9C508.093 61.75 509.238 61.2759 510.082 60.432C510.926 59.5881 511.4 58.4435 511.4 57.25C511.4 56.0565 510.926 54.9119 510.082 54.068C509.238 53.2241 508.093 52.75 506.9 52.75Z" fill="white"/>
<path d="M601.26 81.25H441.04C439.03 81.25 437.4 83.27 437.4 85.75C437.4 88.23 439.03 90.25 441.04 90.25H601.26C603.27 90.25 604.9 88.23 604.9 85.75C604.9 83.27 603.27 81.25 601.26 81.25Z" fill="white"/>
<path d="M588.67 141.5H352.13C350.21 141.5 348.65 143.52 348.65 146C348.65 148.48 350.21 150.5 352.13 150.5H588.67C590.59 150.5 592.15 148.48 592.15 146C592.15 143.52 590.59 141.5 588.67 141.5Z" fill="white"/>
<path d="M588.67 169.5H352.13C350.21 169.5 348.65 171.52 348.65 174C348.65 176.48 350.21 178.5 352.13 178.5H588.67C590.59 178.5 592.15 176.48 592.15 174C592.15 171.52 590.59 169.5 588.67 169.5Z" fill="white"/>
<path d="M588.67 197.5H352.13C350.21 197.5 348.65 199.52 348.65 202C348.65 204.48 350.21 206.5 352.13 206.5H588.67C590.59 206.5 592.15 204.48 592.15 202C592.15 199.52 590.59 197.5 588.67 197.5Z" fill="white"/>
<path d="M588.67 225.5H352.13C350.21 225.5 348.65 227.52 348.65 230C348.65 232.48 350.21 234.5 352.13 234.5H588.67C590.59 234.5 592.15 232.48 592.15 230C592.15 227.52 590.59 225.5 588.67 225.5Z" fill="white"/>
<path d="M801.4 322H459.21C455.803 322.006 452.47 321.01 449.625 319.137L449.4 318.989V85.5C449.405 81.1254 451.145 76.9315 454.238 73.8382C457.331 70.7449 461.525 69.0049 465.9 69H784.9C789.274 69.0049 793.468 70.7449 796.562 73.8382C799.655 76.9315 801.395 81.1254 801.4 85.5L801.4 322Z" fill="#79B473"/>
<path d="M525.9 175.5C545.23 175.5 560.9 159.83 560.9 140.5C560.9 121.17 545.23 105.5 525.9 105.5C506.57 105.5 490.9 121.17 490.9 140.5C490.9 159.83 506.57 175.5 525.9 175.5Z" fill="white"/>
<path d="M661.9 121.75H596.9C595.706 121.75 594.562 122.224 593.718 123.068C592.874 123.912 592.4 125.057 592.4 126.25C592.4 127.443 592.874 128.588 593.718 129.432C594.562 130.276 595.706 130.75 596.9 130.75H661.9C663.093 130.75 664.238 130.276 665.082 129.432C665.926 128.588 666.4 127.443 666.4 126.25C666.4 125.057 665.926 123.912 665.082 123.068C664.238 122.224 663.093 121.75 661.9 121.75Z" fill="white"/>
<path d="M756.26 150.25H596.04C594.03 150.25 592.4 152.27 592.4 154.75C592.4 157.23 594.03 159.25 596.04 159.25H756.26C758.27 159.25 759.9 157.23 759.9 154.75C759.9 152.27 758.27 150.25 756.26 150.25Z" fill="white"/>
<path d="M743.67 210.5H507.13C505.21 210.5 503.65 212.52 503.65 215C503.65 217.48 505.21 219.5 507.13 219.5H743.67C745.59 219.5 747.15 217.48 747.15 215C747.15 212.52 745.59 210.5 743.67 210.5Z" fill="white"/>
<path d="M743.67 238.5H507.13C505.21 238.5 503.65 240.52 503.65 243C503.65 245.48 505.21 247.5 507.13 247.5H743.67C745.59 247.5 747.15 245.48 747.15 243C747.15 240.52 745.59 238.5 743.67 238.5Z" fill="white"/>
<path d="M743.67 266.5H507.13C505.21 266.5 503.65 268.52 503.65 271C503.65 273.48 505.21 275.5 507.13 275.5H743.67C745.59 275.5 747.15 273.48 747.15 271C747.15 268.52 745.59 266.5 743.67 266.5Z" fill="white"/>
<path d="M743.67 294.5H507.13C505.21 294.5 503.65 296.52 503.65 299C503.65 301.48 505.21 303.5 507.13 303.5H743.67C745.59 303.5 747.15 301.48 747.15 299C747.15 296.52 745.59 294.5 743.67 294.5Z" fill="white"/>
<path d="M810.9 319.5H459.21C455.829 319.504 452.547 318.362 449.9 316.26C449.69 316.1 449.49 315.93 449.29 315.75L419.52 289.5L372.18 247.75C369.077 245.01 365.08 243.499 360.94 243.5H274.9C270.393 243.506 266.073 245.3 262.886 248.486C259.699 251.673 257.906 255.993 257.9 260.5V649.5C257.906 654.007 259.699 658.327 262.886 661.514C266.073 664.701 270.393 666.494 274.9 666.5H810.9C815.407 666.494 819.727 664.701 822.914 661.514C826.1 658.327 827.894 654.007 827.9 649.5V336.5C827.894 331.993 826.1 327.673 822.914 324.486C819.727 321.299 815.407 319.506 810.9 319.5V319.5ZM825.9 649.5C825.895 653.477 824.313 657.289 821.501 660.101C818.689 662.913 814.877 664.495 810.9 664.5H274.9C270.923 664.495 267.111 662.913 264.299 660.101C261.487 657.289 259.905 653.477 259.9 649.5V260.5C259.905 256.523 261.487 252.711 264.299 249.899C267.111 247.087 270.923 245.505 274.9 245.5H360.94C364.593 245.497 368.122 246.831 370.86 249.25L416.5 289.5L447.96 317.25C451.074 319.978 455.07 321.488 459.21 321.5H810.9C814.877 321.505 818.689 323.087 821.501 325.899C824.313 328.711 825.895 332.523 825.9 336.5V649.5Z" fill="#79B473"/>
<path d="M451.4 500.5C470.73 500.5 486.4 484.83 486.4 465.5C486.4 446.17 470.73 430.5 451.4 430.5C432.07 430.5 416.4 446.17 416.4 465.5C416.4 484.83 432.07 500.5 451.4 500.5Z" fill="#E6E6E6"/>
<path d="M587.4 446.75H522.4C521.206 446.75 520.062 447.224 519.218 448.068C518.374 448.912 517.9 450.057 517.9 451.25C517.9 452.443 518.374 453.588 519.218 454.432C520.062 455.276 521.206 455.75 522.4 455.75H587.4C588.593 455.75 589.738 455.276 590.582 454.432C591.426 453.588 591.9 452.443 591.9 451.25C591.9 450.057 591.426 448.912 590.582 448.068C589.738 447.224 588.593 446.75 587.4 446.75Z" fill="#E6E6E6"/>
<path d="M191.857 666.5H34.8566C34.5914 666.5 34.337 666.395 34.1495 666.207C33.962 666.02 33.8566 665.765 33.8566 665.5C33.8566 665.235 33.962 664.98 34.1495 664.793C34.337 664.605 34.5914 664.5 34.8566 664.5H191.857C192.122 664.5 192.376 664.605 192.564 664.793C192.751 664.98 192.857 665.235 192.857 665.5C192.857 665.765 192.751 666.02 192.564 666.207C192.376 666.395 192.122 666.5 191.857 666.5Z" fill="#79B473"/>
<path d="M203.94 339.792L193.07 362.933L560.51 535.525L571.379 512.385L203.94 339.792Z" fill="#79B473"/>
<path d="M93.9286 258.031L175.247 296.444C176.822 297.188 178.04 298.527 178.634 300.166C179.227 301.806 179.147 303.612 178.411 305.187C177.676 306.762 176.345 307.977 174.711 308.565C173.077 309.152 171.275 309.065 169.7 308.321L76.2144 264.16C69.3422 267.629 63.4399 272.751 59.033 279.07L160.89 327.184C162.464 327.929 163.681 329.268 164.274 330.907C164.867 332.547 164.787 334.352 164.052 335.927C163.316 337.501 161.986 338.716 160.353 339.304C158.719 339.892 156.917 339.805 155.342 339.061L53.4857 290.947C51.4641 298.392 51.3131 306.231 53.0464 313.765L146.532 357.925C148.106 358.669 149.324 360.008 149.917 361.648C150.51 363.287 150.43 365.093 149.694 366.667C148.959 368.242 147.628 369.457 145.995 370.045C144.362 370.633 142.56 370.545 140.985 369.802L59.6661 331.389C69.587 349.939 88.4257 367.573 113.128 379.242C159.037 400.929 207.796 393.798 222.033 363.316C236.27 332.833 210.594 290.542 164.685 268.855C139.983 257.186 114.459 253.865 93.9286 258.031Z" fill="#79B473"/>
<path d="M261.674 249.739L239.524 263.354L452.142 609.23L474.292 595.614L261.674 249.739Z" fill="#79B473"/>
<path d="M263.789 278.958C292.725 261.171 294.611 211.661 268.002 168.376C241.394 125.09 196.366 104.419 167.43 122.207C138.495 139.994 136.609 189.504 163.217 232.789C189.826 276.075 234.854 296.745 263.789 278.958Z" fill="#79B473"/>
<path d="M255.41 265.328C279.17 250.722 280.612 209.894 258.631 174.136C236.65 138.378 199.57 121.232 175.81 135.837C152.049 150.443 150.607 191.271 172.588 227.029C194.57 262.787 231.65 279.934 255.41 265.328Z" fill="white"/>
<path d="M152.61 627.099C130.777 640.754 108.945 640.748 87.1124 627.081C86.4213 626.656 85.86 626.049 85.4895 625.327C85.1191 624.605 84.9536 623.795 85.0112 622.985L91.8236 534.424H146.924L154.707 622.954C154.774 623.771 154.614 624.591 154.244 625.322C153.873 626.054 153.308 626.669 152.61 627.099V627.099Z" fill="white"/>
<path d="M119.12 545.444C134.475 545.444 146.924 540.958 146.924 535.426C146.924 529.893 134.475 525.407 119.12 525.407C103.764 525.407 91.3152 529.893 91.3152 535.426C91.3152 540.958 103.764 545.444 119.12 545.444Z" fill="white"/>
<path d="M140.913 532.044C126.425 542.236 112.399 542.236 98.8363 532.044V516.015H140.913V532.044Z" fill="#79B473"/>
<path d="M119.875 524.029C131.494 524.029 140.913 520.441 140.913 516.015C140.913 511.588 131.494 508 119.875 508C108.256 508 98.8363 511.588 98.8363 516.015C98.8363 520.441 108.256 524.029 119.875 524.029Z" fill="#79B473"/>
<path d="M120.876 516.014C121.983 516.014 122.88 515.566 122.88 515.013C122.88 514.459 121.983 514.011 120.876 514.011C119.77 514.011 118.873 514.459 118.873 515.013C118.873 515.566 119.77 516.014 120.876 516.014Z" fill="#79B473"/>
<path d="M130.338 516.014C131.444 516.014 132.341 515.566 132.341 515.013C132.341 514.459 131.444 514.011 130.338 514.011C129.231 514.011 128.334 514.459 128.334 515.013C128.334 515.566 129.231 516.014 130.338 516.014Z" fill="#79B473"/>
<path d="M125.607 518.38C126.714 518.38 127.611 517.932 127.611 517.378C127.611 516.825 126.714 516.376 125.607 516.376C124.5 516.376 123.603 516.825 123.603 517.378C123.603 517.932 124.5 518.38 125.607 518.38Z" fill="#79B473"/>
<path d="M106.685 518.38C107.791 518.38 108.688 517.932 108.688 517.378C108.688 516.825 107.791 516.376 106.685 516.376C105.578 516.376 104.681 516.825 104.681 517.378C104.681 517.932 105.578 518.38 106.685 518.38Z" fill="#79B473"/>
<path d="M111.415 516.014C112.522 516.014 113.419 515.566 113.419 515.013C113.419 514.459 112.522 514.011 111.415 514.011C110.309 514.011 109.412 514.459 109.412 515.013C109.412 515.566 110.309 516.014 111.415 516.014Z" fill="#79B473"/>
<path d="M116.146 519.563C117.253 519.563 118.15 519.114 118.15 518.561C118.15 518.008 117.253 517.559 116.146 517.559C115.039 517.559 114.142 518.008 114.142 518.561C114.142 519.114 115.039 519.563 116.146 519.563Z" fill="#79B473"/>
<path d="M241.61 603.099C219.777 616.754 197.945 616.748 176.112 603.081C175.421 602.656 174.86 602.049 174.49 601.327C174.119 600.605 173.954 599.795 174.011 598.985L180.824 510.424H235.924L243.707 598.954C243.774 599.771 243.614 600.591 243.244 601.322C242.873 602.054 242.308 602.669 241.61 603.099V603.099Z" fill="white"/>
<path d="M208.12 521.444C223.476 521.444 235.924 516.958 235.924 511.426C235.924 505.893 223.476 501.407 208.12 501.407C192.764 501.407 180.315 505.893 180.315 511.426C180.315 516.958 192.764 521.444 208.12 521.444Z" fill="white"/>
<path d="M229.913 508.044C215.425 518.236 201.399 518.236 187.836 508.044V492.015H229.913V508.044Z" fill="#79B473"/>
<path d="M208.875 500.029C220.494 500.029 229.913 496.441 229.913 492.015C229.913 487.588 220.494 484 208.875 484C197.256 484 187.836 487.588 187.836 492.015C187.836 496.441 197.256 500.029 208.875 500.029Z" fill="#79B473"/>
<path d="M209.876 492.014C210.983 492.014 211.88 491.566 211.88 491.013C211.88 490.459 210.983 490.011 209.876 490.011C208.77 490.011 207.873 490.459 207.873 491.013C207.873 491.566 208.77 492.014 209.876 492.014Z" fill="#79B473"/>
<path d="M219.338 492.014C220.444 492.014 221.341 491.566 221.341 491.013C221.341 490.459 220.444 490.011 219.338 490.011C218.231 490.011 217.334 490.459 217.334 491.013C217.334 491.566 218.231 492.014 219.338 492.014Z" fill="#79B473"/>
<path d="M214.607 494.38C215.714 494.38 216.611 493.932 216.611 493.378C216.611 492.825 215.714 492.376 214.607 492.376C213.501 492.376 212.604 492.825 212.604 493.378C212.604 493.932 213.501 494.38 214.607 494.38Z" fill="#79B473"/>
<path d="M195.685 494.38C196.791 494.38 197.688 493.932 197.688 493.378C197.688 492.825 196.791 492.376 195.685 492.376C194.578 492.376 193.681 492.825 193.681 493.378C193.681 493.932 194.578 494.38 195.685 494.38Z" fill="#79B473"/>
<path d="M200.415 492.014C201.522 492.014 202.419 491.566 202.419 491.013C202.419 490.459 201.522 490.011 200.415 490.011C199.309 490.011 198.412 490.459 198.412 491.013C198.412 491.566 199.309 492.014 200.415 492.014Z" fill="#79B473"/>
<path d="M205.146 495.563C206.253 495.563 207.15 495.114 207.15 494.561C207.15 494.008 206.253 493.559 205.146 493.559C204.039 493.559 203.142 494.008 203.142 494.561C203.142 495.114 204.039 495.563 205.146 495.563Z" fill="#79B473"/>
<path d="M120.023 592.184C114.234 590.52 110.016 588.48 107.367 586.066C104.742 583.629 103.43 580.629 103.43 577.066C103.43 573.035 105.035 569.707 108.246 567.082C111.48 564.434 115.676 563.109 120.832 563.109C124.348 563.109 127.477 563.789 130.219 565.148C132.984 566.508 135.117 568.383 136.617 570.773C138.141 573.164 138.902 575.777 138.902 578.613H132.117C132.117 575.52 131.133 573.094 129.164 571.336C127.195 569.555 124.418 568.664 120.832 568.664C117.504 568.664 114.902 569.402 113.027 570.879C111.176 572.332 110.25 574.359 110.25 576.961C110.25 579.047 111.129 580.816 112.887 582.27C114.668 583.699 117.68 585.012 121.922 586.207C126.188 587.402 129.516 588.727 131.906 590.18C134.32 591.609 136.102 593.285 137.25 595.207C138.422 597.129 139.008 599.391 139.008 601.992C139.008 606.141 137.391 609.469 134.156 611.977C130.922 614.461 126.598 615.703 121.184 615.703C117.668 615.703 114.387 615.035 111.34 613.699C108.293 612.34 105.938 610.488 104.273 608.145C102.633 605.801 101.812 603.141 101.812 600.164H108.598C108.598 603.258 109.734 605.707 112.008 607.512C114.305 609.293 117.363 610.184 121.184 610.184C124.746 610.184 127.477 609.457 129.375 608.004C131.273 606.551 132.223 604.57 132.223 602.062C132.223 599.555 131.344 597.621 129.586 596.262C127.828 594.879 124.641 593.52 120.023 592.184Z" fill="#79B473"/>
<path d="M200.691 565.961V586H193.941V534.812H212.82C218.422 534.812 222.805 536.242 225.969 539.102C229.156 541.961 230.75 545.746 230.75 550.457C230.75 555.426 229.191 559.258 226.074 561.953C222.98 564.625 218.539 565.961 212.75 565.961H200.691ZM200.691 560.441H212.82C216.43 560.441 219.195 559.598 221.117 557.91C223.039 556.199 224 553.738 224 550.527C224 547.48 223.039 545.043 221.117 543.215C219.195 541.387 216.559 540.438 213.207 540.367H200.691V560.441Z" fill="#79B473"/>
</g>
<defs>
<clipPath id="clip0">
<rect width="827.9" height="666.5" fill="white"/>
</clipPath>
</defs>
</svg>
