<svg width="849" height="555" viewBox="0 0 849 555" fill="none" xmlns="http://www.w3.org/2000/svg">
<path d="M608 209C615.732 209 622 203.18 622 196C622 188.82 615.732 183 608 183C600.268 183 594 188.82 594 196C594 203.18 600.268 209 608 209Z" fill="#79B473"/>
<path d="M606.308 201C606.022 201.001 605.744 200.905 605.516 200.727L605.502 200.716L602.521 198.351C602.383 198.241 602.267 198.104 602.179 197.948C602.092 197.792 602.035 197.62 602.012 197.441C601.989 197.262 602 197.08 602.045 196.905C602.09 196.731 602.167 196.567 602.273 196.424C602.379 196.28 602.511 196.16 602.662 196.07C602.813 195.98 602.979 195.921 603.152 195.898C603.325 195.874 603.5 195.886 603.668 195.933C603.837 195.98 603.994 196.061 604.132 196.171L606.063 197.706L610.625 191.537C610.731 191.394 610.863 191.274 611.013 191.184C611.164 191.094 611.33 191.035 611.502 191.012C611.675 190.988 611.85 191 612.018 191.047C612.186 191.093 612.343 191.174 612.481 191.283L612.453 191.323L612.482 191.284C612.761 191.506 612.943 191.833 612.989 192.194C613.035 192.555 612.941 192.92 612.727 193.209L607.361 200.464C607.237 200.631 607.077 200.767 606.895 200.86C606.712 200.953 606.511 201.001 606.308 201V201Z" fill="white"/>
<path d="M608 248C615.732 248 622 241.956 622 234.5C622 227.044 615.732 221 608 221C600.268 221 594 227.044 594 234.5C594 241.956 600.268 248 608 248Z" fill="#79B473"/>
<path d="M606.308 240C606.022 240.001 605.744 239.895 605.516 239.7L605.502 239.688L602.521 237.086C602.383 236.965 602.267 236.815 602.179 236.643C602.092 236.471 602.035 236.282 602.012 236.085C601.989 235.888 602 235.688 602.045 235.496C602.09 235.304 602.167 235.124 602.273 234.966C602.379 234.809 602.511 234.676 602.662 234.577C602.813 234.478 602.979 234.413 603.152 234.387C603.325 234.362 603.5 234.375 603.668 234.426C603.837 234.478 603.994 234.567 604.132 234.688L606.063 236.376L610.625 229.591C610.731 229.434 610.863 229.302 611.013 229.203C611.164 229.103 611.33 229.039 611.502 229.013C611.675 228.987 611.85 229 612.018 229.051C612.186 229.103 612.343 229.191 612.481 229.312L612.453 229.356L612.482 229.312C612.761 229.556 612.943 229.916 612.989 230.313C613.035 230.71 612.941 231.112 612.727 231.43L607.361 239.411C607.237 239.595 607.077 239.743 606.895 239.846C606.712 239.948 606.511 240.001 606.308 240V240Z" fill="white"/>
<path d="M616 293C623.732 293 630 286.956 630 279.5C630 272.044 623.732 266 616 266C608.268 266 602 272.044 602 279.5C602 286.956 608.268 293 616 293Z" fill="#79B473"/>
<path d="M613.699 284C613.388 284 613.085 283.914 612.836 283.755L612.82 283.745L609.569 281.616C609.418 281.517 609.291 281.394 609.195 281.253C609.1 281.113 609.038 280.958 609.013 280.797C608.988 280.635 609 280.472 609.049 280.315C609.098 280.158 609.182 280.01 609.298 279.881C609.413 279.752 609.558 279.644 609.722 279.563C609.887 279.482 610.068 279.429 610.257 279.408C610.445 279.387 610.637 279.398 610.82 279.44C611.004 279.482 611.175 279.555 611.326 279.654L613.432 281.035L618.409 275.484C618.524 275.355 618.668 275.247 618.833 275.166C618.997 275.085 619.178 275.032 619.366 275.011C619.554 274.989 619.745 275 619.929 275.042C620.112 275.084 620.284 275.156 620.434 275.255L620.403 275.291L620.435 275.256C620.739 275.455 620.937 275.75 620.988 276.074C621.038 276.399 620.935 276.728 620.702 276.988L614.848 283.518C614.713 283.668 614.539 283.79 614.34 283.874C614.14 283.957 613.921 284.001 613.699 284V284Z" fill="white"/>
<path d="M750.222 390C750.078 390 749.986 389.997 749.955 389.995L732.627 389.996V387.57H750.017C750.42 387.584 758.635 387.804 766.204 379.083C777.483 366.085 786.746 333.909 766.819 254.435C740.024 147.57 762.372 53.1606 773.224 17.5307C773.758 15.7679 773.854 13.9112 773.503 12.1073C773.152 10.3034 772.364 8.60176 771.202 7.13673C770.039 5.6717 768.534 4.48347 766.804 3.66593C765.075 2.84839 763.169 2.42395 761.237 2.42613H502.459C500.492 2.42864 498.553 2.87161 496.799 3.7191C495.046 4.56659 493.528 5.79473 492.368 7.30382C487.771 13.3087 481.462 24.8445 477.514 45.7034L475 45.2746C479.033 23.9626 485.547 12.0873 490.301 5.87752C491.698 4.05914 493.527 2.57927 495.64 1.55804C497.752 0.536814 500.089 0.00302039 502.459 6.60293e-06H761.237C763.565 -0.00212076 765.862 0.509834 767.946 1.49543C770.029 2.48102 771.843 3.91324 773.244 5.67894C774.644 7.44464 775.593 9.49544 776.016 11.6693C776.438 13.8432 776.323 16.0806 775.678 18.2047C764.882 53.6498 742.65 147.569 769.304 253.873C789.511 334.465 779.797 367.339 768.09 380.724C760.368 389.553 751.86 390 750.222 390Z" fill="#79B473"/>
<path d="M703.222 435C703.078 435 702.986 434.996 702.955 434.995L685.627 434.996V432.564H703.017C703.422 432.576 711.635 432.799 719.204 424.055C730.483 411.024 739.746 378.765 719.819 299.087C693.024 191.948 715.372 97.2969 726.224 61.5756C726.758 59.8083 726.854 57.9469 726.503 56.1384C726.152 54.3299 725.364 52.6238 724.202 51.155C723.039 49.6863 721.534 48.495 719.804 47.6754C718.075 46.8557 716.169 46.4302 714.237 46.4324H455.459C453.492 46.4349 451.553 46.879 449.799 47.7286C448.046 48.5783 446.528 49.8096 445.368 51.3225C440.771 57.3428 434.462 68.9083 430.515 89.8206L428 89.3907C432.033 68.024 438.547 56.1183 443.301 49.8926C444.699 48.0695 446.528 46.5859 448.64 45.562C450.753 44.5382 453.089 44.003 455.459 44H714.237C716.565 43.9979 718.862 44.5112 720.946 45.4993C723.029 46.4874 724.843 47.9233 726.244 49.6935C727.644 51.4637 728.593 53.5198 729.016 55.6993C729.438 57.8787 729.323 60.1218 728.678 62.2514C717.882 97.7874 695.65 191.948 722.304 298.524C742.511 379.323 732.797 412.281 721.09 425.701C713.368 434.552 704.86 435 703.222 435Z" fill="#79B473"/>
<path d="M676.255 342.876C649.479 236.573 671.812 142.646 682.66 107.208C683.306 105.084 683.421 102.847 682.996 100.674C682.571 98.5001 681.618 96.4498 680.211 94.6842C678.805 92.9186 676.984 91.4861 674.892 90.4997C672.8 89.5132 670.494 88.9998 668.156 89H408.233C405.853 89.0022 403.507 89.5351 401.386 90.5555C399.265 91.5758 397.429 93.0548 396.026 94.8723C385.534 108.513 363.762 153.749 388.079 278.913C401.083 345.873 400.889 391.527 396.641 421.602C394.257 438.536 390.58 450.525 387.248 458.61L386.893 459.466C386.191 461.102 385.825 462.85 385.814 464.615C385.79 466.608 386.212 468.584 387.054 470.411C387.896 472.239 389.138 473.877 390.699 475.218C391.716 476.119 392.868 476.875 394.117 477.461C395.154 477.961 396.251 478.341 397.385 478.592C398.539 478.859 399.723 478.992 400.911 478.99H656.823C656.855 478.99 656.941 479 657.092 479C658.731 479 667.283 478.551 675.036 469.723C686.79 456.336 696.549 423.468 676.255 342.876ZM673.138 468.081C665.536 476.808 657.287 476.584 656.888 476.574H400.911C398.862 476.573 396.844 476.098 395.033 475.19C393.223 474.282 391.676 472.968 390.526 471.364C389.515 469.977 388.836 468.398 388.536 466.738C388.237 465.078 388.323 463.375 388.79 461.75C388.912 461.278 389.071 460.814 389.265 460.363C393.071 451.116 395.892 441.533 397.687 431.756C403.768 400.407 404.901 352.031 390.602 278.474C366.469 154.238 387.809 109.686 398.096 96.2996C399.263 94.7927 400.789 93.5665 402.55 92.72C404.311 91.8734 406.258 91.4303 408.233 91.4264H668.156C670.095 91.4251 672.008 91.85 673.744 92.6675C675.48 93.485 676.991 94.6727 678.158 96.1369C679.325 97.6012 680.116 99.3018 680.469 101.105C680.822 102.908 680.726 104.763 680.19 106.525C669.289 142.157 646.848 236.573 673.764 343.437C693.778 422.907 684.472 455.082 673.138 468.081Z" fill="#79B473"/>
<path d="M552.765 204H419.235C416.52 204 413.917 202.999 411.998 201.218C410.078 199.436 409 197.02 409 194.5C409 191.98 410.078 189.564 411.998 187.782C413.917 186.001 416.52 185 419.235 185H552.765C555.479 185 558.083 186.001 560.002 187.782C561.922 189.564 563 191.98 563 194.5C563 197.02 561.922 199.436 560.002 201.218C558.083 202.999 555.479 204 552.765 204V204Z" fill="#CCCCCC"/>
<path d="M552.765 246H419.235C416.52 246 413.917 244.999 411.998 243.218C410.078 241.436 409 239.02 409 236.5C409 233.98 410.078 231.564 411.998 229.782C413.917 228.001 416.52 227 419.235 227H552.765C555.479 227 558.083 228.001 560.002 229.782C561.922 231.564 563 233.98 563 236.5C563 239.02 561.922 241.436 560.002 243.218C558.083 244.999 555.479 246 552.765 246V246Z" fill="#CCCCCC"/>
<path d="M563.765 289H430.235C427.52 289 424.917 287.999 422.998 286.218C421.078 284.436 420 282.02 420 279.5C420 276.98 421.078 274.564 422.998 272.782C424.917 271.001 427.52 270 430.235 270H563.765C566.479 270 569.083 271.001 571.002 272.782C572.922 274.564 574 276.98 574 279.5C574 282.02 572.922 284.436 571.002 286.218C569.083 287.999 566.479 289 563.765 289V289Z" fill="#CCCCCC"/>
<path d="M570.831 334H438.168C435.472 334 432.885 332.999 430.978 331.217C429.071 329.436 428 327.02 428 324.5C428 321.98 429.071 319.564 430.978 317.782C432.885 316.001 435.472 315 438.168 315H570.831C573.528 315 576.115 316.001 578.022 317.782C579.929 319.564 581 321.98 581 324.5C581 327.02 579.929 329.436 578.022 331.217C576.115 332.999 573.528 334 570.831 334Z" fill="#CCCCCC"/>
<path d="M570.803 158H475.207C473.867 158.002 472.54 157.692 471.302 157.09C470.064 156.488 468.938 155.604 467.99 154.49C467.042 153.375 466.29 152.052 465.777 150.595C465.264 149.138 465 147.577 465 146C465 144.423 465.264 142.862 465.777 141.405C466.29 139.948 467.042 138.625 467.99 137.51C468.938 136.396 470.064 135.512 471.302 134.91C472.54 134.308 473.867 133.998 475.207 134H570.803C573.507 134 576.101 135.264 578.013 137.515C579.926 139.765 581 142.817 581 146C581 149.183 579.926 152.235 578.013 154.485C576.101 156.736 573.507 158 570.803 158Z" fill="#79B473"/>
<path d="M624 337C631.732 337 638 331.18 638 324C638 316.82 631.732 311 624 311C616.268 311 610 316.82 610 324C610 331.18 616.268 337 624 337Z" fill="#CCCCCC"/>
<path d="M577.765 377H444.235C441.52 377 438.917 375.999 436.998 374.217C435.078 372.436 434 370.02 434 367.5C434 364.98 435.078 362.564 436.998 360.782C438.917 359.001 441.52 358 444.235 358H577.765C580.479 358 583.083 359.001 585.002 360.782C586.922 362.564 588 364.98 588 367.5C588 370.02 586.922 372.436 585.002 374.217C583.083 375.999 580.479 377 577.765 377Z" fill="#CCCCCC"/>
<path d="M631 382C638.732 382 645 375.956 645 368.5C645 361.044 638.732 355 631 355C623.268 355 617 361.044 617 368.5C617 375.956 623.268 382 631 382Z" fill="#CCCCCC"/>
<path opacity="0.1" d="M270 490C377.696 490 465 486.642 465 482.5C465 478.358 377.696 475 270 475C162.304 475 75 478.358 75 482.5C75 486.642 162.304 490 270 490Z" fill="#79B473"/>
<path d="M346.491 224.942C345.643 223.249 341.159 212.728 341.159 212.728L333.646 192.654C333.646 192.654 328.315 184.189 328.315 182.617C328.315 181.045 318.62 174.756 318.62 174.756C318.62 174.756 310.744 172.338 310.138 172.096C309.532 171.854 300.202 168.671 300.202 168.671C300.202 168.671 296.527 163.689 296.004 164.99L296.004 164.993C295.984 164.96 295.965 164.932 295.946 164.898C295.195 163.452 294.72 161.87 294.545 160.24C294.525 160.095 294.508 159.942 294.49 159.791C296.91 158.1 298.894 155.825 300.269 153.165C301.644 150.504 302.37 147.538 302.383 144.524C302.381 143.73 302.329 142.937 302.228 142.151C302.294 142.108 302.364 142.07 302.436 142.037C302.587 141.97 302.549 141.915 302.438 141.858C302.476 141.837 302.514 141.815 302.552 141.799C302.753 141.709 302.619 141.641 302.424 141.56L302.436 141.554C302.709 141.431 302.364 141.35 302.086 141.221C302.071 141.137 302.057 141.053 302.041 140.97C302.103 140.81 302.14 140.642 302.152 140.471C302.177 140.484 302.2 140.498 302.226 140.509C302.293 140.198 302.291 139.874 302.221 139.563C302.203 139.627 302.182 139.689 302.158 139.749C302.175 139.467 302.119 139.186 301.995 138.934C301.87 138.682 301.683 138.469 301.452 138.318C301.438 138.305 301.423 138.292 301.409 138.279L301.923 132.854C309.5 132.485 310.83 119.191 309.102 118.452C307.373 117.713 309.102 116.113 309.102 112.913C309.102 109.712 303.385 106.143 303.385 106.143C303.385 106.143 300.992 107.374 297.27 101.219C293.547 95.0646 279.854 94.0798 278.924 95.68C277.993 97.2802 271.878 99.3728 263.902 101.712C255.925 104.05 257.387 113.775 258.717 115.867C259.812 117.597 260.453 119.59 260.578 121.652C260.578 122.883 263.104 128.053 263.104 128.053C262.307 129.845 264.335 139.659 264.935 142.448C264.926 142.534 264.916 142.619 264.907 142.705C264.902 142.713 264.896 142.721 264.891 142.729C264.862 142.774 264.836 142.821 264.813 142.869C264.684 143.159 264.642 143.481 264.691 143.795C264.647 144.138 264.693 144.487 264.825 144.806C264.871 147.433 265.46 150.021 266.554 152.395C267.649 154.768 269.222 156.874 271.169 158.569C271.178 158.737 271.188 158.906 271.197 159.079C271.308 161.357 271.371 164.052 271.255 166.63C271.249 166.762 271.239 166.891 271.232 167.022C270.793 167.114 270.38 167.311 270.028 167.597C269.676 167.884 269.394 168.252 269.205 168.671C268.453 170.161 264.091 172.459 264.091 172.459C264.091 172.459 256.457 172.821 255.73 174.273C255.003 175.724 243.975 180.561 243.975 180.561C243.975 180.561 238.159 184.068 239.007 188.059C239.45 190.144 238.206 193.383 236.917 196.003C234.221 194.948 231.413 194.227 228.552 193.852L234.729 199.946C234.6 200.155 234.524 200.273 234.524 200.273L231.01 213.091C231.01 213.091 229.798 217.566 228.586 218.654C227.374 219.742 229.677 229.659 229.677 229.659C229.677 229.659 228.344 236.672 227.253 238.486C226.163 240.3 228.95 244.775 228.95 244.775L234.524 257.835L249.307 261.705C249.307 261.705 250.292 261.92 251.884 262.271C251.834 262.584 251.783 262.895 251.731 263.204C251.018 267.365 250.083 271.191 248.944 272.226C246.157 274.765 246.278 286.133 246.278 286.133L246.399 302.217C246.399 302.217 247.368 322.049 246.884 322.775C246.578 323.233 247.192 323.979 248.812 324.651C248.765 324.949 248.72 325.252 248.677 325.561C248.222 328.85 248.018 332.604 249.065 334.263C249.52 335.16 249.768 336.153 249.792 337.165C249.792 338.737 252.094 342.002 252.094 342.002C252.094 342.002 250.277 355.426 253.306 360.021C256.336 364.616 258.88 372.961 257.426 374.895C257.426 374.895 254.881 380.579 256.093 383.119C257.305 385.658 256.093 387.109 254.518 387.714C252.943 388.319 253.078 393.277 253.078 393.277L255.972 416.858C255.972 416.858 257.547 421.695 256.214 423.388C254.881 425.081 254.881 433.547 256.941 436.449C259.001 439.351 254.033 444.672 254.033 444.672C254.033 444.672 251.004 449.146 255.851 450.598C255.851 450.598 256.82 450.84 255.003 452.774C253.185 454.709 252.821 457.128 254.033 457.974C254.284 458.13 254.547 458.264 254.819 458.377C254.774 458.664 254.725 458.961 254.668 459.276C254.203 461.801 253.326 465.09 251.731 466.681C248.64 469.947 245.973 473.612 243.796 477.584C242.134 480.835 241.407 483.878 243.248 485.305C247.611 488.691 253.185 489.779 256.457 488.449C259.728 487.118 264.333 483.007 264.333 483.007L265.424 478.291C265.424 478.291 264.697 475.388 268.332 474.3C271.967 473.212 275.36 469.342 275.36 469.342V463.073C276.24 462.554 277.09 461.982 277.905 461.361C277.905 461.361 279.602 455.193 277.905 453.137C276.209 451.081 275.603 450.356 277.784 449.026C279.965 447.695 280.261 444.793 278.661 442.254C277.057 439.714 274.512 435.965 276.693 430.644C278.874 425.323 279.674 408.998 279.674 408.998C279.674 408.998 278.656 397.872 279.674 395.333C280.692 392.793 278.511 387.714 278.511 387.714C278.511 387.714 279.238 381.426 280.571 378.523C281.904 375.621 282.994 360.263 282.994 360.263C282.994 360.263 285.418 353.733 285.418 349.5C285.418 345.268 281.661 335.11 287.236 332.449C287.236 332.449 289.659 334.626 288.69 343.333C288.69 343.333 291.477 353.491 291.477 356.635C291.477 359.779 293.537 371.147 293.537 371.147C293.537 371.147 293.779 374.775 294.627 376.105C295.476 377.435 294.627 381.063 294.627 381.063C294.627 381.063 297.778 384.086 296.93 386.021C296.082 387.956 297.075 392.319 297.075 392.319L296.324 419.398C296.324 419.398 294.143 431.007 299.232 438.021C299.232 438.021 297.414 448.3 296.324 449.026C295.233 449.751 300.323 456.04 300.323 456.04C300.323 456.04 298.912 460.113 301.777 460.313V467.044C302.771 468.856 304.136 470.424 305.776 471.64C308.442 473.574 307.351 480.226 307.351 480.226C307.351 480.226 310.744 488.691 319.711 486.877C328.678 485.063 329.89 484.216 329.405 481.193C329.231 480.09 328.843 478.121 328.285 475.887C327.321 472.002 325.843 467.315 324.073 465.003C321.286 461.361 318.984 453.742 318.984 453.742C318.984 453.742 317.893 451.202 318.984 450.356C320.075 449.509 319.59 447.937 319.59 447.937C319.59 447.937 320.651 444.793 319.696 442.858C318.742 440.923 321.529 436.933 321.529 436.933L320.68 418.309L321.529 391.221C321.529 391.221 317.772 386.747 319.348 384.086C320.923 381.426 317.53 377.677 317.53 377.677C317.53 377.677 317.166 377.556 318.136 374.533C318.716 372.751 318.629 370.81 317.893 369.091C317.893 369.091 315.833 361.593 319.469 355.91C319.469 355.91 321.044 348.412 321.529 344.542C321.863 341.853 323.957 331.806 325.203 325.929C325.273 325.596 325.341 325.278 325.405 324.975C327.2 325.076 328.557 325.193 328.557 325.193C328.557 325.193 325.77 305.24 328.557 301.128C331.344 297.017 326.376 265.575 326.376 265.575C326.376 265.575 325.188 260.08 324.456 254.473C324.414 254.154 324.376 253.835 324.338 253.516C326.588 253.33 328.846 253.279 331.102 253.361C336.918 253.724 342.613 251.426 342.735 249.128C342.856 246.831 346.006 237.761 346.491 235.705C346.976 233.649 347.339 226.635 346.491 224.942Z" fill="url(#paint0_linear)"/>
<path d="M277 458.171V469.39C277 469.39 273.627 473.25 270.013 474.336C266.399 475.422 267.122 478.317 267.122 478.317L266.038 483.022C266.038 483.022 261.46 487.123 258.207 488.45C254.955 489.777 249.413 488.691 245.076 485.314C243.245 483.89 243.968 480.855 245.621 477.612C247.774 473.664 250.425 470.008 253.509 466.736C255.094 465.149 255.966 461.868 256.429 459.349C256.771 457.462 256.882 456 256.882 456L277 458.171Z" fill="#4C495A"/>
<path opacity="0.1" d="M277 467V469.789C277 469.789 273.627 473.571 270.013 474.634C266.399 475.698 267.122 478.534 267.122 478.534L266.038 483.143C266.038 483.143 261.46 487.161 258.207 488.461C254.955 489.761 249.413 488.698 245.076 485.389C243.245 483.994 243.968 481.021 245.621 477.844C245.544 481.181 246.551 484.93 251.461 484.798C256.761 484.633 261.868 482.811 266.038 479.598C266.038 479.598 265.917 471.798 271.459 470.025C273.484 469.369 275.364 468.343 277 467V467Z" fill="black"/>
<path d="M319.469 487.745C310.734 489.561 307.43 481.086 307.43 481.086C307.43 481.086 308.492 474.426 305.895 472.489C304.289 471.261 302.961 469.691 302 467.888V456.749L312.623 449L318.374 454.221L318.761 454.57C318.761 454.57 321.003 462.197 323.718 465.844C325.441 468.159 326.881 472.852 327.821 476.741C328.364 478.979 328.742 480.95 328.912 482.054C329.384 485.081 328.203 485.929 319.469 487.745Z" fill="#4C495A"/>
<path opacity="0.1" d="M319.469 487.749C310.734 489.534 307.43 481.206 307.43 481.206C307.43 481.206 308.492 474.664 305.895 472.76C304.289 471.553 302.961 470.011 302 468.24V464C303.686 465.794 306.863 469.268 307.548 470.738C308.492 472.76 308.61 480.136 312.977 481.444C317.344 482.753 325.843 483.943 326.551 480.612C326.845 479.346 327.271 478.114 327.821 476.938C328.364 479.137 328.742 481.073 328.912 482.158C329.384 485.132 328.203 485.965 319.469 487.749Z" fill="black"/>
<path opacity="0.1" d="M256.462 456L277 458.382V464.887C274.683 466.363 271.363 467.93 269.498 466.321C266.743 463.95 258.553 460.938 256 459.673C256.349 457.604 256.462 456 256.462 456Z" fill="black"/>
<path opacity="0.1" d="M318 455.478C315.408 454.519 310.789 458.718 304.704 461.357C303.858 461.781 302.935 462.001 302 462V456.678L312.141 449L317.63 454.173C317.715 454.62 317.839 455.057 318 455.478Z" fill="black"/>
<path d="M327 321.943C327 321.943 326.621 323.731 326.079 326.325C324.847 332.228 322.775 342.318 322.444 345.019C321.965 348.906 320.406 356.435 320.406 356.435C316.81 362.144 318.848 369.674 318.848 369.674C319.577 371.406 319.662 373.348 319.087 375.139C318.128 378.175 318.488 378.297 318.488 378.297C318.488 378.297 321.845 382.062 320.286 384.734C318.728 387.406 322.444 391.899 322.444 391.899L321.605 419.105L322.444 437.808C322.444 437.808 319.687 441.816 320.632 443.759C321.576 445.702 320.526 448.86 320.526 448.86C320.526 448.86 321.006 450.439 319.927 451.289C318.848 452.139 319.927 454.69 319.927 454.69C317.169 453.718 312.254 457.969 305.78 460.641C299.306 463.313 301.464 456.998 301.464 456.998C301.464 456.998 296.429 450.682 297.508 449.953C298.587 449.225 300.385 438.901 300.385 438.901C295.35 431.857 297.508 420.198 297.508 420.198L298.251 393.002C298.251 393.002 297.268 388.62 298.107 386.677C298.946 384.734 295.829 381.697 295.829 381.697C295.829 381.697 296.668 378.054 295.829 376.718C294.99 375.382 294.75 371.738 294.75 371.738C294.75 371.738 292.712 360.322 292.712 357.164C292.712 354.007 289.955 343.805 289.955 343.805C290.914 335.06 288.516 332.874 288.516 332.874C283.001 335.546 286.718 345.748 286.718 349.999C286.718 354.249 284.32 360.808 284.32 360.808C284.32 360.808 283.241 376.232 281.922 379.147C280.603 382.062 279.884 388.377 279.884 388.377C279.884 388.377 282.042 393.478 281.035 396.029C280.028 398.579 281.035 409.753 281.035 409.753C281.035 409.753 280.244 426.149 278.086 431.493C275.928 436.837 278.445 440.602 280.033 443.152C281.615 445.703 281.323 448.617 279.165 449.953C277.007 451.289 277.606 452.018 279.285 454.083C280.963 456.147 279.285 462.341 279.285 462.341C279.285 462.341 272.451 467.807 269.454 465.378C266.457 462.949 256.866 459.791 255.667 458.941C254.468 458.091 254.828 455.662 256.626 453.718C258.424 451.775 257.465 451.532 257.465 451.532C252.67 450.075 255.667 445.581 255.667 445.581C255.667 445.581 260.582 440.237 258.544 437.322C256.506 434.408 256.506 425.906 257.825 424.206C259.144 422.505 257.585 417.647 257.585 417.647L254.722 393.964C254.722 393.964 254.588 388.985 256.146 388.377C257.705 387.77 258.904 386.313 257.705 383.762C256.506 381.212 259.024 375.503 259.024 375.503C260.462 373.56 257.945 365.18 254.947 360.565C251.95 355.95 253.749 342.469 253.749 342.469C253.749 342.469 251.471 339.189 251.471 337.61C251.448 336.597 251.203 335.601 250.751 334.696C249.716 333.029 249.917 329.259 250.368 325.956C250.804 322.759 251.471 320 251.471 320L327 321.943Z" fill="#79B473"/>
<path d="M302 186.293L279.697 192C279.697 192 268.715 181.827 271.432 176.368C272.365 174.493 272.777 171.292 272.918 167.908C273.026 165.263 272.967 162.498 272.863 160.161C272.705 156.782 272.451 154.286 272.451 154.286C272.451 154.286 295.32 140.143 294.528 154.286C294.367 156.641 294.417 159.008 294.677 161.352C294.839 163.02 295.283 164.641 295.986 166.131C297.209 168.518 298.717 168.553 298.717 168.553L302 186.293Z" fill="#FDC2CC"/>
<path opacity="0.1" d="M295 161.388C291.665 163.928 287.617 165.193 283.517 164.976C279.417 164.759 275.508 163.073 272.426 160.194C272.262 156.805 272 154.302 272 154.302C272 154.302 295.665 140.122 294.845 154.302C294.679 156.664 294.73 159.037 295 161.388V161.388Z" fill="black"/>
<path d="M284 164C293.941 164 302 155.717 302 145.5C302 135.283 293.941 127 284 127C274.059 127 266 135.283 266 145.5C266 155.717 274.059 164 284 164Z" fill="#FDC2CC"/>
<path opacity="0.1" d="M302 186.264L279.697 192C279.697 192 268.715 181.776 271.432 176.289C272.365 174.404 272.777 171.187 272.918 167.786C273.41 170.743 274.852 173.408 276.98 175.292C282.074 179.032 281.282 183.646 281.282 183.646L290.452 183.272C289.886 179.157 293.283 176.913 294.415 176.414C295.547 175.915 294.981 173.671 294.981 173.671L295.986 166C297.209 168.399 298.717 168.434 298.717 168.434L302 186.264Z" fill="black"/>
<path opacity="0.1" d="M327 322.126C327 322.126 326.629 324.083 326.099 326.921C323.546 326.767 320.171 326.656 318.669 327.044C316.088 327.708 305.763 327.974 305.763 327.974L280.184 329V328.107C277.241 328.134 274.303 328.356 271.384 328.771C267.042 329.436 260.237 328.506 255.896 327.708C254.559 327.491 253.251 327.091 252 326.517C252.427 323.019 253.079 320 253.079 320L327 322.126Z" fill="black"/>
<path d="M323.729 245.962C323.358 248.22 323.63 251.962 324.099 255.656C324.808 261.26 325.958 266.752 325.958 266.752C325.958 266.752 330.77 298.179 328.071 302.288C325.372 306.398 328.071 326.342 328.071 326.342C328.071 326.342 319.973 325.616 317.391 326.221C314.809 326.825 304.482 327.067 304.482 327.067L278.897 328V327.188C275.954 327.212 273.015 327.414 270.095 327.792C265.753 328.396 258.946 327.55 254.604 326.825C250.262 326.1 248.501 324.649 248.971 323.924C249.44 323.199 248.501 303.376 248.501 303.376L248.384 287.3C248.384 287.3 248.267 275.938 250.966 273.4C252.069 272.366 252.975 268.541 253.665 264.383C254.656 258.364 255.191 251.643 255.191 251.643L237.352 202.449L237 201.482C237 201.482 242.164 193.263 241.342 189.274C240.521 185.285 246.154 181.78 246.154 181.78C246.154 181.78 256.834 176.945 257.538 175.495C258.242 174.044 265.636 173.682 265.636 173.682C265.636 173.682 269.861 171.385 270.588 169.896C270.765 169.48 271.036 169.113 271.378 168.827C271.72 168.54 272.124 168.341 272.555 168.247C273.053 171.15 274.555 173.768 276.785 175.616C282.066 179.242 281.244 183.714 281.244 183.714L290.751 183.351C290.164 179.363 293.685 177.187 294.858 176.703C296.032 176.22 295.445 174.044 295.445 174.044L296.544 166.217C297.05 164.916 300.609 169.896 300.609 169.896C300.609 169.896 309.645 173.077 310.232 173.319C310.819 173.561 318.447 175.978 318.447 175.978C318.447 175.978 327.836 182.263 327.836 183.835C327.836 185.406 333 193.867 333 193.867C333 193.867 332.939 194.206 332.826 194.824C331.634 201.487 324.588 240.765 323.729 245.962Z" fill="#79B473"/>
<path d="M287.49 226.138C287.49 226.138 266.641 220.499 264.592 219.151C262.543 217.803 250.491 225.647 265.194 236.311C265.194 236.311 283.173 240.111 287.983 236.311C292.793 232.511 287.49 226.138 287.49 226.138Z" fill="#FDC2CC"/>
<path opacity="0.1" d="M330.552 194L333.025 194.119L340.325 213.793C340.325 213.793 344.681 224.104 345.506 225.763C346.33 227.422 345.977 234.296 345.506 236.311C345.035 238.326 341.973 247.215 341.856 249.467C341.738 251.719 336.204 253.97 330.552 253.615C324.901 253.259 311.713 255.037 311.713 255.037C311.713 255.037 297.63 253.555 288.989 258C288.989 258 283.455 246.504 284.044 225.052C284.044 225.052 293.817 224.459 296.289 225.407C298.762 226.356 310.771 229.081 312.302 227.659C313.833 226.237 320.78 230.267 320.78 230.267C321.133 229.485 321.316 228.636 321.316 227.778C321.316 226.919 321.133 226.07 320.78 225.289C319.602 222.444 317.601 213.556 320.191 210.711C322.781 207.867 330.552 194 330.552 194Z" fill="black"/>
<path opacity="0.1" d="M324.218 255.691C318.355 256.095 311.798 256.991 311.798 256.991C311.798 256.991 297.673 255.484 289.004 260C289.004 260 283.453 248.324 284.044 226.537C284.044 226.537 293.847 225.935 296.327 226.898C298.807 227.861 310.853 230.63 312.389 229.185C313.924 227.741 320.892 231.833 320.892 231.833C321.247 231.04 321.43 230.178 321.43 229.306C321.43 228.433 321.247 227.571 320.892 226.778C319.711 223.889 317.703 214.861 320.302 211.972C322.9 209.083 330.695 195 330.695 195L333 195.111C331.8 201.746 324.709 240.861 323.845 246.037C323.471 248.286 323.745 252.012 324.218 255.691Z" fill="black"/>
<path d="M330.552 194L333.025 194.12L340.325 214.102C340.325 214.102 344.681 224.574 345.506 226.259C346.33 227.944 345.977 234.926 345.506 236.972C345.035 239.019 341.973 248.046 341.856 250.333C341.738 252.62 336.204 254.907 330.552 254.546C324.901 254.185 311.713 255.991 311.713 255.991C311.713 255.991 297.63 254.486 288.989 259C288.989 259 283.455 247.324 284.044 225.537C284.044 225.537 293.817 224.935 296.289 225.898C298.762 226.861 310.771 229.63 312.302 228.185C313.833 226.741 320.78 230.833 320.78 230.833C321.133 230.04 321.316 229.178 321.316 228.306C321.316 227.433 321.133 226.571 320.78 225.778C319.602 222.889 317.601 213.861 320.191 210.972C322.781 208.083 330.552 194 330.552 194Z" fill="#79B473"/>
<path d="M305.535 238.194L308.454 240.057L324.724 212.985L321.804 211.122L305.535 238.194Z" fill="#DFE6F5"/>
<path d="M333.066 209.319C335.942 204.534 335.632 198.971 332.375 196.893C329.118 194.816 324.147 197.01 321.271 201.794C318.396 206.579 318.706 212.141 321.963 214.219C325.22 216.297 330.191 214.103 333.066 209.319Z" fill="#DFE6F5"/>
<path opacity="0.1" d="M331.402 208.257C333.466 204.823 333.244 200.83 330.906 199.338C328.568 197.847 325 199.422 322.936 202.856C320.872 206.29 321.094 210.283 323.432 211.775C325.77 213.266 329.338 211.691 331.402 208.257Z" fill="black"/>
<path d="M297.219 252.031L300.138 253.893L310.262 237.048L307.342 235.186L297.219 252.031Z" fill="#53526B"/>
<path d="M280.372 253L287.653 250.968C287.653 250.968 323.582 251.924 311.526 237.102C311.526 237.102 305.2 231.005 291.95 235.906C278.7 240.807 275 241.405 275 241.405L280.372 253Z" fill="#FDC2CC"/>
<path opacity="0.1" d="M275.5 191C276.328 191 277 190.105 277 189C277 187.895 276.328 187 275.5 187C274.672 187 274 187.895 274 189C274 190.105 274.672 191 275.5 191Z" fill="black"/>
<path opacity="0.1" d="M299 190C299.552 190 300 189.105 300 188C300 186.895 299.552 186 299 186C298.448 186 298 186.895 298 188C298 189.105 298.448 190 299 190Z" fill="black"/>
<path d="M275.5 190C276.328 190 277 189.105 277 188C277 186.895 276.328 186 275.5 186C274.672 186 274 186.895 274 188C274 189.105 274.672 190 275.5 190Z" fill="white"/>
<path opacity="0.1" d="M277 211C277.552 211 278 210.328 278 209.5C278 208.672 277.552 208 277 208C276.448 208 276 208.672 276 209.5C276 210.328 276.448 211 277 211Z" fill="black"/>
<path opacity="0.1" d="M300 209C300.552 209 301 208.105 301 207C301 205.895 300.552 205 300 205C299.448 205 299 205.895 299 207C299 208.105 299.448 209 300 209Z" fill="black"/>
<path d="M277 210C277.552 210 278 209.105 278 208C278 206.895 277.552 206 277 206C276.448 206 276 206.895 276 208C276 209.105 276.448 210 277 210Z" fill="white"/>
<path opacity="0.1" d="M299 278C299.552 278 300 277.552 300 277C300 276.448 299.552 276 299 276C298.448 276 298 276.448 298 277C298 277.552 298.448 278 299 278Z" fill="black"/>
<path opacity="0.1" d="M280 278C280.552 278 281 277.552 281 277C281 276.448 280.552 276 280 276C279.448 276 279 276.448 279 277C279 277.552 279.448 278 280 278Z" fill="black"/>
<path d="M299 278C299.552 278 300 277.328 300 276.5C300 275.672 299.552 275 299 275C298.448 275 298 275.672 298 276.5C298 277.328 298.448 278 299 278Z" fill="white"/>
<path opacity="0.1" d="M282 302C283.105 302 284 301.552 284 301C284 300.448 283.105 300 282 300C280.895 300 280 300.448 280 301C280 301.552 280.895 302 282 302Z" fill="black"/>
<path opacity="0.1" d="M300 301C300.552 301 301 300.328 301 299.5C301 298.672 300.552 298 300 298C299.448 298 299 298.672 299 299.5C299 300.328 299.448 301 300 301Z" fill="black"/>
<path d="M282 302C283.105 302 284 301.328 284 300.5C284 299.672 283.105 299 282 299C280.895 299 280 299.672 280 300.5C280 301.328 280.895 302 282 302Z" fill="white"/>
<path d="M280 278C280.552 278 281 277.328 281 276.5C281 275.672 280.552 275 280 275C279.448 275 279 275.672 279 276.5C279 277.328 279.448 278 280 278Z" fill="white"/>
<path d="M300 301C300.552 301 301 300.328 301 299.5C301 298.672 300.552 298 300 298C299.448 298 299 298.672 299 299.5C299 300.328 299.448 301 300 301Z" fill="white"/>
<path d="M299 189C299.552 189 300 188.328 300 187.5C300 186.672 299.552 186 299 186C298.448 186 298 186.672 298 187.5C298 188.328 298.448 189 299 189Z" fill="white"/>
<path d="M300 209C300.552 209 301 208.105 301 207C301 205.895 300.552 205 300 205C299.448 205 299 205.895 299 207C299 208.105 299.448 209 300 209Z" fill="white"/>
<path opacity="0.1" d="M301 257C301 257 301.244 290.084 301.976 296C301.976 296 302.242 258.56 301 257Z" fill="black"/>
<path opacity="0.1" d="M308.017 273C307.539 273 317.516 311.144 317.98 313.877C318.443 316.61 310.797 273 308.017 273Z" fill="black"/>
<path opacity="0.1" d="M316 267C316 267.36 321.695 287.883 324.543 288.963C327.391 290.043 316 267 316 267Z" fill="black"/>
<path opacity="0.1" d="M338 226C338 226 327.321 226.792 327.006 229.356C326.692 231.92 338 226 338 226Z" fill="black"/>
<path opacity="0.1" d="M317 384C317 384 307.749 387.748 309.143 387.99C310.537 388.232 317 384 317 384Z" fill="black"/>
<path opacity="0.1" d="M299.011 378.107C298.722 377.288 304 381.433 304 381.945C304 382.457 299.419 379.258 299.011 378.107Z" fill="black"/>
<path opacity="0.1" d="M308 391.015C308 391.015 314.522 390.678 314.98 393.245C315.437 395.811 308 391.015 308 391.015Z" fill="black"/>
<path opacity="0.1" d="M260 390.5C260 390.5 265.532 389.375 265.978 390.5C266.424 391.625 260 390.5 260 390.5Z" fill="black"/>
<path opacity="0.1" d="M261 448.969C263.254 449.259 275.114 446.65 274.999 448.969C274.884 451.288 261 448.969 261 448.969Z" fill="black"/>
<path opacity="0.1" d="M317 442.056C317 442.056 311.965 441.483 313.193 444L317 442.056Z" fill="black"/>
<path opacity="0.1" d="M240.368 201.398H238.173L234.823 214.106C234.823 214.106 233.667 218.541 232.512 219.62C231.357 220.699 233.552 230.529 233.552 230.529C233.552 230.529 232.281 237.482 231.241 239.281C230.202 241.079 232.859 245.514 232.859 245.514L238.173 258.461L252.267 262.297C252.267 262.297 277.105 267.932 278.26 268.771C279.415 269.61 280.455 268.411 281.263 260.619C282.072 252.827 284.267 237.722 286 237.003C286 237.003 272.137 238.561 270.982 238.322C269.827 238.082 264.281 238.441 264.281 238.441C264.281 238.441 257.003 237.962 255.848 238.681C254.693 239.4 257.35 235.199 257.35 235.199C257.836 233.276 257.836 231.254 257.35 229.331C256.541 226.094 256.079 189.41 240.368 201.398Z" fill="black"/>
<path opacity="0.1" d="M286 238.546C284.248 239.275 282.029 254.596 281.212 262.499C280.394 270.403 279.343 271.619 278.175 270.768C277.227 270.077 260.489 266.176 254.234 264.737C255.219 258.681 255.752 251.921 255.752 251.921L238 202.433H239.869C255.752 190.273 256.219 227.481 257.037 230.764C257.528 232.715 257.528 234.766 257.037 236.717C257.037 236.717 254.35 240.978 255.518 240.248C256.686 239.518 264.044 240.005 264.044 240.005C264.044 240.005 269.65 239.64 270.818 239.883C271.985 240.126 286 238.546 286 238.546Z" fill="black"/>
<path d="M239.538 201.433H237.303L233.892 214.322C233.892 214.322 232.716 218.82 231.54 219.915C230.363 221.009 232.598 230.98 232.598 230.98C232.598 230.98 231.304 238.032 230.246 239.856C229.187 241.68 231.892 246.179 231.892 246.179L237.303 259.311L251.653 263.202C251.653 263.202 276.943 268.917 278.119 269.768C279.295 270.619 280.354 269.403 281.177 261.5C282.001 253.596 284.236 238.275 286 237.546C286 237.546 271.885 239.126 270.709 238.883C269.532 238.64 263.886 239.005 263.886 239.005C263.886 239.005 256.476 238.519 255.3 239.248C254.124 239.978 256.829 235.716 256.829 235.716C257.324 233.765 257.324 231.715 256.829 229.764C256.006 226.481 255.535 189.273 239.538 201.433Z" fill="#79B473"/>
<path opacity="0.1" d="M247 245C247 245 240.325 257.306 239.111 255.886C237.898 254.466 247 245 247 245Z" fill="black"/>
<path opacity="0.1" d="M240 238C240 238 235.422 242.649 237.576 243.86C239.731 245.072 240 238 240 238Z" fill="black"/>
<path opacity="0.1" d="M246 232C246.427 232.137 253.892 234.048 253.999 234.879C254.106 235.71 246 232 246 232Z" fill="black"/>
<path opacity="0.1" d="M301.905 142.894C301.655 142.984 301.441 143.156 301.298 143.384C301.155 143.611 301.091 143.88 301.117 144.149C300.647 144.57 299.987 144.074 299.605 143.536C299.217 143.002 298.779 142.342 298.194 142.417C297.916 142.507 297.646 142.621 297.387 142.759C296.465 143.058 295.686 141.958 295.169 140.994C294.27 139.305 293.371 137.617 292.472 135.931C290.669 136.993 288.539 135.879 286.75 134.779C284.961 133.68 282.831 132.561 281.024 133.623C278.373 135.177 278.276 140.358 275.528 141.636C274.643 142.047 273.615 141.958 272.794 142.525C271.983 143.086 271.545 144.167 271.181 145.202C271.046 145.79 270.729 146.32 270.277 146.713C269.99 146.866 269.67 146.945 269.346 146.943C268.531 147.083 267.693 146.964 266.948 146.601C266.558 146.352 266.262 145.975 266.111 145.532C265.961 145.09 265.963 144.608 266.118 144.167C266.14 144.121 266.165 144.075 266.192 144.032C266.487 143.669 266.753 143.283 266.985 142.876C267.262 142.132 266.865 141.266 266.953 140.461C267.096 139.085 268.53 138.36 268.774 137.007C268.875 136.478 268.769 135.912 268.866 135.378C268.88 135.309 268.898 135.24 268.921 135.172L268.078 135.762C269.023 134.644 269.498 133.09 270.189 131.733C270.958 130.247 272.015 128.934 273.297 127.875C274.579 126.815 276.06 126.031 277.649 125.569C280.655 124.68 283.832 124.923 286.866 125.677C289.75 126.406 292.514 127.562 295.068 129.107C295.98 129.604 296.791 130.273 297.456 131.077C298.014 131.912 298.488 132.801 298.871 133.731C299.766 135.612 302.21 137.353 300.264 137.615C298.646 137.835 300.121 138.987 300.969 139.764C301.161 139.916 301.326 140.099 301.458 140.306C301.599 140.602 301.663 140.93 301.646 141.258C301.628 141.586 301.528 141.905 301.356 142.183C301.029 142.604 302.357 142.689 301.905 142.894Z" fill="black"/>
<path d="M301.905 142.708C301.655 142.801 301.441 142.981 301.298 143.219C301.155 143.457 301.091 143.738 301.117 144.019C300.647 144.459 299.987 143.941 299.605 143.378C299.217 142.82 298.779 142.131 298.194 142.209C297.916 142.303 297.646 142.422 297.387 142.566C296.465 142.879 295.686 141.729 295.169 140.721C294.27 138.955 293.371 137.191 292.472 135.427C290.669 136.538 288.539 135.374 286.75 134.224C284.961 133.074 282.831 131.905 281.024 133.015C278.373 134.64 278.276 140.056 275.528 141.392C274.643 141.822 273.615 141.729 272.794 142.321C271.983 142.908 271.545 144.039 271.181 145.12C271.046 145.735 270.729 146.289 270.277 146.7C269.99 146.86 269.67 146.942 269.346 146.94C268.531 147.087 267.693 146.962 266.948 146.583C266.558 146.322 266.262 145.928 266.111 145.466C265.961 145.003 265.963 144.5 266.118 144.039C266.14 143.99 266.165 143.942 266.192 143.897C266.487 143.518 266.753 143.114 266.985 142.688C267.262 141.91 266.865 141.005 266.953 140.164C267.096 138.725 268.53 137.967 268.774 136.553C268.875 136 268.769 135.408 268.866 134.85C268.88 134.777 268.898 134.705 268.921 134.635L268.078 135.251C269.023 134.082 269.498 132.458 270.189 131.039C270.958 129.485 272.015 128.113 273.297 127.006C274.579 125.898 276.06 125.078 277.649 124.595C280.655 123.665 283.832 123.92 286.866 124.708C289.75 125.47 292.514 126.679 295.068 128.294C295.98 128.813 296.791 129.512 297.456 130.354C298.014 131.226 298.488 132.156 298.871 133.128C299.766 135.095 302.21 136.915 300.264 137.189C298.646 137.419 300.121 138.622 300.969 139.435C301.161 139.594 301.326 139.786 301.458 140.002C301.599 140.312 301.663 140.654 301.646 140.997C301.628 141.34 301.528 141.673 301.356 141.964C301.029 142.405 302.357 142.493 301.905 142.708Z" fill="#865A61"/>
<path opacity="0.1" d="M300.972 139.541L300.787 141.615C300.787 141.615 281.333 115.416 266.199 145C266.199 145 266.125 144.64 266 144.034C266.297 143.653 266.564 143.246 266.797 142.818C267.076 142.034 266.677 141.123 266.765 140.275C266.909 138.827 268.351 138.063 268.596 136.64C268.698 136.083 268.592 135.487 268.689 134.925C268.703 134.852 268.721 134.779 268.745 134.708L267.896 135.329C268.847 134.152 269.324 132.516 270.02 131.087C270.792 129.523 271.855 128.142 273.145 127.026C274.434 125.911 275.923 125.085 277.521 124.599C280.544 123.663 283.739 123.919 286.79 124.712C289.691 125.48 292.47 126.697 295.038 128.324C295.955 128.846 296.77 129.55 297.439 130.398C298 131.276 298.477 132.212 298.863 133.191C299.762 135.171 302.219 137.004 300.263 137.28C298.636 137.512 300.119 138.724 300.972 139.541Z" fill="black"/>
<g opacity="0.1">
<path opacity="0.1" d="M302.11 142.833C302.013 142.945 301.943 143.079 301.904 143.224C301.865 143.368 301.86 143.52 301.887 143.668C301.41 144.102 300.741 143.591 300.352 143.036C299.959 142.486 299.515 141.806 298.92 141.884C298.638 141.976 298.364 142.094 298.101 142.236C297.165 142.544 296.374 141.411 295.85 140.418C294.937 138.677 294.025 136.938 293.112 135.2C291.282 136.295 289.12 135.147 287.304 134.014C285.488 132.881 283.326 131.729 281.491 132.823C278.8 134.424 278.701 139.762 275.912 141.078C275.013 141.503 273.97 141.411 273.137 141.995C272.313 142.573 271.868 143.687 271.499 144.753C271.362 145.359 271.04 145.905 270.581 146.31C270.29 146.467 269.965 146.548 269.636 146.547C268.809 146.691 267.959 146.568 267.202 146.194C266.749 145.885 266.424 145.412 266.29 144.869C266.197 145.301 266.235 145.752 266.398 146.161C266.561 146.571 266.841 146.919 267.202 147.159C267.959 147.533 268.809 147.656 269.636 147.511C269.965 147.513 270.29 147.432 270.581 147.275C271.04 146.869 271.362 146.324 271.499 145.717C271.868 144.651 272.313 143.538 273.137 142.959C273.97 142.375 275.013 142.467 275.912 142.043C278.701 140.726 278.8 135.388 281.491 133.788C283.326 132.693 285.488 133.845 287.304 134.979C289.12 136.112 291.282 137.259 293.112 136.165C294.025 137.901 294.937 139.64 295.85 141.382C296.374 142.375 297.165 143.509 298.101 143.2C298.364 143.059 298.638 142.941 298.92 142.848C299.515 142.771 299.959 143.451 300.352 144C300.741 144.555 301.41 145.066 301.887 144.632C301.861 144.356 301.926 144.078 302.071 143.844C302.216 143.609 302.433 143.432 302.688 143.34C303.053 143.171 302.276 143.081 302.11 142.833Z" fill="black"/>
<path opacity="0.1" d="M300.58 138.015C300.721 137.957 300.87 137.918 301.022 137.901C301.893 137.781 301.896 137.366 301.551 136.772C301.387 136.864 301.207 136.919 301.022 136.936C300.082 137.066 300.171 137.51 300.58 138.015Z" fill="black"/>
<path opacity="0.1" d="M302.372 142.055C302.438 141.744 302.436 141.422 302.368 141.112C302.326 141.304 302.245 141.485 302.13 141.643C301.984 141.834 302.164 141.958 302.372 142.055Z" fill="black"/>
<path opacity="0.1" d="M267.234 140.666C267.224 140.721 267.213 140.776 267.207 140.833C267.188 141.267 267.218 141.702 267.298 142.129C267.353 141.641 267.332 141.147 267.234 140.666V140.666Z" fill="black"/>
<path opacity="0.1" d="M269.134 134.783C268.914 135.213 268.65 135.618 268.349 135.991L269.104 135.455C269.1 135.231 269.11 135.006 269.134 134.783V134.783Z" fill="black"/>
</g>
<path d="M266.987 144C266.987 144 264.236 131.275 265.111 129.235C265.111 129.235 262.736 124.193 262.736 122.992C262.621 120.989 262.019 119.049 260.986 117.35C259.736 115.31 258.361 105.826 265.862 103.545C273.363 101.264 279.113 99.2237 279.988 97.6632C280.864 96.1026 293.74 97.0629 297.241 103.065C300.741 109.067 302.991 107.867 302.991 107.867C302.991 107.867 308.367 111.348 308.367 114.469C308.367 117.59 306.742 119.151 308.367 119.871C309.992 120.592 308.742 133.556 301.616 133.916L300.991 140.759C300.991 140.759 281.864 115.67 266.987 144Z" fill="#79B473"/>
<path opacity="0.1" d="M266.496 106C266.496 106 264.679 116.485 268 120L266.496 106Z" fill="black"/>
<path opacity="0.1" d="M276 103C276 103 270.968 114.742 272.192 117L276 103Z" fill="black"/>
<path opacity="0.1" d="M279 100C279 100 275.925 114.812 277.401 116L279 100Z" fill="black"/>
<path opacity="0.1" d="M284 104C284 104 279.668 113.665 281.415 115L284 104Z" fill="black"/>
<path opacity="0.1" d="M291 105C291 105 287.352 112.644 288.102 114L291 105Z" fill="black"/>
<path opacity="0.1" d="M300 113C300 113 295.137 113.913 296.135 115L300 113Z" fill="black"/>
<path opacity="0.1" d="M304 120C304 120 299.223 121.962 300.11 123L304 120Z" fill="black"/>
<path opacity="0.1" d="M264 129.928C264 129.928 290.518 118.326 302 135C302 135 288.063 122.237 264 129.928Z" fill="black"/>
<path d="M255 219.721L259.181 216L271 226.279L266.819 230L255.949 220.547L255 219.721Z" fill="#53526B"/>
<path d="M232 195C232 195 247.538 196.395 262 213.567L255.972 220L232 195Z" fill="#DFE6F5"/>
<path d="M278.274 226.138C278.274 226.138 263.94 220.499 262.532 219.151C261.123 217.803 252.838 225.647 262.946 236.311C262.946 236.311 275.307 240.111 278.613 236.311C281.92 232.511 278.274 226.138 278.274 226.138Z" fill="#FDC2CC"/>
<defs>
<linearGradient id="paint0_linear" x1="287" y1="489" x2="287" y2="95" gradientUnits="userSpaceOnUse">
<stop stop-color="#808080" stop-opacity="0.25"/>
<stop offset="0.53514" stop-color="#808080" stop-opacity="0.12"/>
<stop offset="1" stop-color="#808080" stop-opacity="0.1"/>
</linearGradient>
</defs>
</svg>
