<svg width="828" height="667" viewBox="0 0 828 667" fill="none" xmlns="http://www.w3.org/2000/svg">
<g clip-path="url(#clip0)">
<path d="M149.168 439.157C148.44 439.157 147.717 439.043 147.024 438.82C146.148 438.543 145.334 438.095 144.632 437.502C143.93 436.908 143.352 436.182 142.933 435.363L136.169 422.245C135.32 420.595 135.161 418.675 135.726 416.907C136.291 415.14 137.535 413.668 139.183 412.816L248.52 356.445C250.171 355.596 252.091 355.437 253.858 356.002C255.626 356.567 257.098 357.81 257.95 359.459L264.713 372.577C265.562 374.227 265.721 376.147 265.156 377.915C264.591 379.682 263.348 381.154 261.699 382.006L152.362 438.378C151.375 438.889 150.28 439.156 149.168 439.157V439.157Z" fill="#79B473"/>
<path d="M188.83 388.047C189.123 388.451 189.372 388.885 189.573 389.341L201.126 414.572C201.499 415.413 201.702 416.319 201.724 417.239C201.746 418.158 201.586 419.073 201.254 419.931C200.922 420.789 200.425 421.573 199.79 422.238C199.155 422.904 198.395 423.437 197.553 423.809L158.694 437.391C154.653 438.802 150.234 438.681 146.276 437.051C142.317 435.422 139.094 432.396 137.218 428.549L137.667 428.33L137.218 428.549C135.254 424.522 134.911 419.896 136.261 415.624C137.611 411.353 140.55 407.763 144.472 405.597L180.303 385.785C181.768 385.129 183.414 384.995 184.966 385.407C186.518 385.818 187.882 386.75 188.83 388.047V388.047Z" fill="#D0D0D0"/>
<path d="M646.4 322H459.21C454.949 321.987 450.837 320.434 447.632 317.627L370.529 249.625C367.882 247.287 364.472 245.998 360.94 246H294.4V16.5C294.405 12.1254 296.145 7.93147 299.238 4.8382C302.331 1.74492 306.525 0.00494413 310.9 0H629.9C634.275 0.00494149 638.468 1.74492 641.562 4.8382C644.655 7.93148 646.395 12.1254 646.4 16.5L646.4 322Z" fill="#E6E6E6"/>
<path d="M370.9 106.5C390.23 106.5 405.9 90.83 405.9 71.5C405.9 52.17 390.23 36.5 370.9 36.5C351.57 36.5 335.9 52.17 335.9 71.5C335.9 90.83 351.57 106.5 370.9 106.5Z" fill="white"/>
<path d="M506.9 52.75H441.9C440.706 52.75 439.562 53.2241 438.718 54.068C437.874 54.9119 437.4 56.0565 437.4 57.25C437.4 58.4435 437.874 59.5881 438.718 60.432C439.562 61.2759 440.706 61.75 441.9 61.75H506.9C508.093 61.75 509.238 61.2759 510.082 60.432C510.926 59.5881 511.4 58.4435 511.4 57.25C511.4 56.0565 510.926 54.9119 510.082 54.068C509.238 53.2241 508.093 52.75 506.9 52.75Z" fill="white"/>
<path d="M601.26 81.25H441.04C439.03 81.25 437.4 83.27 437.4 85.75C437.4 88.23 439.03 90.25 441.04 90.25H601.26C603.27 90.25 604.9 88.23 604.9 85.75C604.9 83.27 603.27 81.25 601.26 81.25Z" fill="white"/>
<path d="M588.67 141.5H352.13C350.21 141.5 348.65 143.52 348.65 146C348.65 148.48 350.21 150.5 352.13 150.5H588.67C590.59 150.5 592.15 148.48 592.15 146C592.15 143.52 590.59 141.5 588.67 141.5Z" fill="white"/>
<path d="M588.67 169.5H352.13C350.21 169.5 348.65 171.52 348.65 174C348.65 176.48 350.21 178.5 352.13 178.5H588.67C590.59 178.5 592.15 176.48 592.15 174C592.15 171.52 590.59 169.5 588.67 169.5Z" fill="white"/>
<path d="M588.67 197.5H352.13C350.21 197.5 348.65 199.52 348.65 202C348.65 204.48 350.21 206.5 352.13 206.5H588.67C590.59 206.5 592.15 204.48 592.15 202C592.15 199.52 590.59 197.5 588.67 197.5Z" fill="white"/>
<path d="M588.67 225.5H352.13C350.21 225.5 348.65 227.52 348.65 230C348.65 232.48 350.21 234.5 352.13 234.5H588.67C590.59 234.5 592.15 232.48 592.15 230C592.15 227.52 590.59 225.5 588.67 225.5Z" fill="white"/>
<path d="M801.4 322H459.21C455.803 322.006 452.47 321.01 449.625 319.137L449.4 318.989V85.5C449.405 81.1254 451.145 76.9315 454.238 73.8382C457.331 70.7449 461.525 69.0049 465.9 69H784.9C789.274 69.0049 793.468 70.7449 796.562 73.8382C799.655 76.9315 801.395 81.1254 801.4 85.5L801.4 322Z" fill="#79B473"/>
<path d="M525.9 175.5C545.23 175.5 560.9 159.83 560.9 140.5C560.9 121.17 545.23 105.5 525.9 105.5C506.57 105.5 490.9 121.17 490.9 140.5C490.9 159.83 506.57 175.5 525.9 175.5Z" fill="white"/>
<path d="M661.9 121.75H596.9C595.706 121.75 594.562 122.224 593.718 123.068C592.874 123.912 592.4 125.057 592.4 126.25C592.4 127.443 592.874 128.588 593.718 129.432C594.562 130.276 595.706 130.75 596.9 130.75H661.9C663.093 130.75 664.238 130.276 665.082 129.432C665.926 128.588 666.4 127.443 666.4 126.25C666.4 125.057 665.926 123.912 665.082 123.068C664.238 122.224 663.093 121.75 661.9 121.75Z" fill="white"/>
<path d="M756.26 150.25H596.04C594.03 150.25 592.4 152.27 592.4 154.75C592.4 157.23 594.03 159.25 596.04 159.25H756.26C758.27 159.25 759.9 157.23 759.9 154.75C759.9 152.27 758.27 150.25 756.26 150.25Z" fill="white"/>
<path d="M743.67 210.5H507.13C505.21 210.5 503.65 212.52 503.65 215C503.65 217.48 505.21 219.5 507.13 219.5H743.67C745.59 219.5 747.15 217.48 747.15 215C747.15 212.52 745.59 210.5 743.67 210.5Z" fill="white"/>
<path d="M743.67 238.5H507.13C505.21 238.5 503.65 240.52 503.65 243C503.65 245.48 505.21 247.5 507.13 247.5H743.67C745.59 247.5 747.15 245.48 747.15 243C747.15 240.52 745.59 238.5 743.67 238.5Z" fill="white"/>
<path d="M743.67 266.5H507.13C505.21 266.5 503.65 268.52 503.65 271C503.65 273.48 505.21 275.5 507.13 275.5H743.67C745.59 275.5 747.15 273.48 747.15 271C747.15 268.52 745.59 266.5 743.67 266.5Z" fill="white"/>
<path d="M743.67 294.5H507.13C505.21 294.5 503.65 296.52 503.65 299C503.65 301.48 505.21 303.5 507.13 303.5H743.67C745.59 303.5 747.15 301.48 747.15 299C747.15 296.52 745.59 294.5 743.67 294.5Z" fill="white"/>
<path d="M810.9 319.5H459.21C455.829 319.504 452.547 318.362 449.9 316.26C449.69 316.1 449.49 315.93 449.29 315.75L419.52 289.5L372.18 247.75C369.077 245.01 365.08 243.499 360.94 243.5H274.9C270.393 243.506 266.073 245.3 262.886 248.486C259.699 251.673 257.906 255.993 257.9 260.5V649.5C257.906 654.007 259.699 658.327 262.886 661.514C266.073 664.701 270.393 666.494 274.9 666.5H810.9C815.407 666.494 819.727 664.701 822.914 661.514C826.1 658.327 827.894 654.007 827.9 649.5V336.5C827.894 331.993 826.1 327.673 822.914 324.486C819.727 321.299 815.407 319.506 810.9 319.5V319.5ZM825.9 649.5C825.895 653.477 824.313 657.289 821.501 660.101C818.689 662.913 814.877 664.495 810.9 664.5H274.9C270.923 664.495 267.111 662.913 264.299 660.101C261.487 657.289 259.905 653.477 259.9 649.5V260.5C259.905 256.523 261.487 252.711 264.299 249.899C267.111 247.087 270.923 245.505 274.9 245.5H360.94C364.593 245.497 368.122 246.831 370.86 249.25L416.5 289.5L447.96 317.25C451.074 319.978 455.07 321.488 459.21 321.5H810.9C814.877 321.505 818.689 323.087 821.501 325.899C824.313 328.711 825.895 332.523 825.9 336.5V649.5Z" fill="#79B473"/>
<path d="M103.254 379.591C132.812 379.591 156.773 355.63 156.773 326.072C156.773 296.514 132.812 272.553 103.254 272.553C73.696 272.553 49.7346 296.514 49.7346 326.072C49.7346 355.63 73.696 379.591 103.254 379.591Z" fill="#79B473"/>
<path d="M102.821 665.918H88.0616C86.2058 665.916 84.4265 665.178 83.1142 663.865C81.8019 662.553 81.0637 660.774 81.0616 658.918V535.904C81.0637 534.048 81.8019 532.269 83.1142 530.957C84.4265 529.645 86.2058 528.906 88.0616 528.904H102.821C104.677 528.906 106.456 529.645 107.768 530.957C109.081 532.269 109.819 534.048 109.821 535.904V658.918C109.819 660.774 109.081 662.553 107.768 663.865C106.456 665.178 104.677 665.916 102.821 665.918V665.918Z" fill="#79B473"/>
<path d="M134.821 665.918H120.062C118.206 665.916 116.427 665.178 115.114 663.865C113.802 662.553 113.064 660.774 113.062 658.918V535.904C113.064 534.048 113.802 532.269 115.114 530.957C116.427 529.645 118.206 528.906 120.062 528.904H134.821C136.677 528.906 138.456 529.645 139.768 530.957C141.081 532.269 141.819 534.048 141.821 535.904V658.918C141.819 660.774 141.081 662.553 139.768 663.865C138.456 665.178 136.677 665.916 134.821 665.918V665.918Z" fill="#79B473"/>
<path d="M188.417 508.669C188.417 552.299 147.376 566.373 103.745 566.373C60.1149 566.373 30.4172 552.299 30.4172 508.669C30.4172 465.038 59.7867 390.669 103.417 390.669C147.048 390.669 188.417 465.038 188.417 508.669Z" fill="#D0D0D0"/>
<path d="M102.129 345.908L102.074 343.908C105.794 343.805 109.075 343.571 111.539 341.771C112.238 341.231 112.813 340.547 113.224 339.766C113.634 338.984 113.872 338.124 113.921 337.242C113.964 336.704 113.883 336.162 113.683 335.66C113.483 335.158 113.17 334.709 112.768 334.348C111.132 332.966 108.499 333.413 106.58 334.293L104.925 335.052L108.099 311.861L110.08 312.133L107.381 331.859C109.988 331.093 112.404 331.423 114.059 332.82C114.694 333.375 115.193 334.069 115.516 334.848C115.838 335.628 115.977 336.471 115.919 337.312C115.861 338.497 115.544 339.654 114.991 340.703C114.439 341.752 113.663 342.668 112.719 343.386C109.552 345.7 105.436 345.815 102.129 345.908Z" fill="#D0D0D0"/>
<path d="M130.651 313.834H119.879V315.834H130.651V313.834Z" fill="#D0D0D0"/>
<path d="M96.6508 313.834H85.8793V315.834H96.6508V313.834Z" fill="#D0D0D0"/>
<path d="M697.9 597.5H403.9C399.923 597.496 396.11 595.914 393.298 593.102C390.486 590.29 388.904 586.477 388.9 582.5V420.5C388.904 416.523 390.486 412.71 393.298 409.898C396.11 407.086 399.923 405.504 403.9 405.5H697.9C701.877 405.504 705.69 407.086 708.502 409.898C711.314 412.71 712.895 416.523 712.9 420.5V582.5C712.895 586.477 711.314 590.29 708.502 593.102C705.69 595.914 701.877 597.496 697.9 597.5ZM403.9 407.5C400.453 407.504 397.149 408.875 394.712 411.312C392.275 413.749 390.904 417.053 390.9 420.5V582.5C390.904 585.947 392.275 589.251 394.712 591.688C397.149 594.125 400.453 595.496 403.9 595.5H697.9C701.347 595.496 704.651 594.125 707.088 591.688C709.525 589.251 710.896 585.947 710.9 582.5V420.5C710.896 417.053 709.525 413.749 707.088 411.312C704.651 408.875 701.347 407.504 697.9 407.5H403.9Z" fill="#E6E6E6"/>
<path d="M451.4 500.5C470.73 500.5 486.4 484.83 486.4 465.5C486.4 446.17 470.73 430.5 451.4 430.5C432.07 430.5 416.4 446.17 416.4 465.5C416.4 484.83 432.07 500.5 451.4 500.5Z" fill="#E6E6E6"/>
<path d="M587.4 446.75H522.4C521.206 446.75 520.062 447.224 519.218 448.068C518.374 448.912 517.9 450.057 517.9 451.25C517.9 452.443 518.374 453.588 519.218 454.432C520.062 455.276 521.206 455.75 522.4 455.75H587.4C588.593 455.75 589.738 455.276 590.582 454.432C591.426 453.588 591.9 452.443 591.9 451.25C591.9 450.057 591.426 448.912 590.582 448.068C589.738 447.224 588.593 446.75 587.4 446.75Z" fill="#E6E6E6"/>
<path d="M681.76 475.25H521.54C519.53 475.25 517.9 477.27 517.9 479.75C517.9 482.23 519.53 484.25 521.54 484.25H681.76C683.77 484.25 685.4 482.23 685.4 479.75C685.4 477.27 683.77 475.25 681.76 475.25Z" fill="#E6E6E6"/>
<path d="M669.17 535.5H432.63C430.71 535.5 429.15 537.52 429.15 540C429.15 542.48 430.71 544.5 432.63 544.5H669.17C671.09 544.5 672.65 542.48 672.65 540C672.65 537.52 671.09 535.5 669.17 535.5Z" fill="#E6E6E6"/>
<path d="M669.17 563.5H432.63C430.71 563.5 429.15 565.52 429.15 568C429.15 570.48 430.71 572.5 432.63 572.5H669.17C671.09 572.5 672.65 570.48 672.65 568C672.65 565.52 671.09 563.5 669.17 563.5Z" fill="#E6E6E6"/>
<path d="M60.5409 311.367C64.7033 305.102 72.0272 302.446 79.2494 301.8C87.3786 301.072 95.2334 302.64 103.17 304.163C111.905 305.839 121.15 307.407 129.951 305.288C133.845 304.387 137.483 302.615 140.592 300.103C143.7 297.592 146.198 294.408 147.897 290.79C151.12 283.733 151.814 275.781 149.864 268.272C147.801 260.286 142.682 253.259 136.476 247.951C123.809 237.118 106.668 232.25 90.1806 232.708C73.7561 233.132 57.8814 238.714 44.806 248.663C31.7088 258.971 22.4924 273.414 18.6611 289.634C14.6548 305.722 15.9599 322.674 22.3815 337.958C25.9893 346.328 31.2072 353.873 35.2335 362.032C38.9822 369.628 41.8693 378.46 39.5368 386.932C37.49 394.367 31.481 400.972 23.9372 402.991C16.7521 404.913 9.65757 401.762 5.72059 395.554C1.94948 389.608 1.85925 381.819 7.52137 377.018C8.94896 375.787 10.6119 374.86 12.4091 374.292C14.2064 373.724 16.1003 373.528 17.9757 373.715C19.8512 373.902 21.669 374.469 23.3186 375.381C24.9682 376.292 26.4151 377.53 27.5714 379.018C29.8685 382.002 30.8967 385.771 30.4331 389.507C30.1541 391.396 33.0444 392.211 33.3259 390.305C34.0016 386.353 33.2524 382.29 31.2117 378.839C29.171 375.388 25.9714 372.774 22.1829 371.462C18.3945 370.15 14.2634 370.225 10.5255 371.675C6.78763 373.125 3.68586 375.854 1.77282 379.378C-1.64173 385.798 0.200616 393.541 4.53508 399.029C6.77142 401.952 9.80257 404.169 13.2658 405.414C16.7291 406.659 20.4779 406.881 24.0636 406.051C31.9535 404.229 38.4079 397.958 41.4432 390.589C44.8223 382.385 43.2741 373.231 39.9799 365.27C36.419 356.665 31.1311 348.947 26.9493 340.654C23.1629 333.16 20.7534 325.047 19.8357 316.701C17.9989 299.942 21.8026 283.049 30.645 268.694C39.6578 254.562 53.4144 244.107 69.4435 239.207C85.2489 234.246 102.681 234.398 118.156 240.495C133.4 246.501 148.119 259.591 147.943 277.17C147.867 284.68 145.08 292.338 139.327 297.347C132.453 303.333 122.882 303.844 114.241 302.91C105.544 301.97 97.0997 299.43 88.3661 298.783C80.7696 298.219 72.5742 298.805 65.7915 302.579C62.6328 304.34 59.9437 306.835 57.9505 309.853C56.8792 311.466 59.4764 312.97 60.5409 311.367L60.5409 311.367Z" fill="#D0D0D0"/>
<path d="M45.1231 562.207C44.7692 562.207 44.4158 562.18 44.0659 562.126L29.4747 559.906C27.6403 559.624 25.9924 558.627 24.8925 557.132C23.7926 555.637 23.3306 553.767 23.6078 551.932L42.1183 430.319C42.3996 428.485 43.397 426.837 44.8918 425.737C46.3866 424.637 48.2567 424.175 50.0918 424.452L64.6831 426.673C66.5175 426.954 68.1655 427.952 69.2654 429.447C70.3653 430.941 70.8273 432.811 70.55 434.646L52.0394 556.26C51.7854 557.913 50.9488 559.421 49.6805 560.512C48.4122 561.602 46.7958 562.204 45.1231 562.207V562.207Z" fill="#79B473"/>
<path d="M62.56 479.326C62.0611 479.325 61.5636 479.272 61.0759 479.166L33.8709 473.692C32.9715 473.5 32.119 473.131 31.362 472.609C30.6049 472.086 29.9584 471.42 29.4591 470.647C28.9599 469.875 28.6179 469.011 28.4525 468.107C28.2872 467.202 28.3018 466.273 28.4955 465.374L40.3351 425.949C41.5679 421.85 44.2618 418.345 47.9062 416.1C51.5505 413.854 55.8921 413.023 60.1081 413.765L60.0213 414.257L60.1081 413.766C64.5201 414.541 68.4655 416.982 71.1289 420.584C73.7924 424.186 74.9704 428.674 74.4194 433.12L69.4002 473.754C69.0703 475.326 68.2111 476.736 66.966 477.751C65.721 478.765 64.1657 479.321 62.56 479.326H62.56Z" fill="#D0D0D0"/>
<path d="M191.857 666.5H34.8566C34.5914 666.5 34.337 666.395 34.1495 666.207C33.9619 666.02 33.8566 665.765 33.8566 665.5C33.8566 665.235 33.9619 664.98 34.1495 664.793C34.337 664.605 34.5914 664.5 34.8566 664.5H191.857C192.122 664.5 192.376 664.605 192.564 664.793C192.751 664.98 192.857 665.235 192.857 665.5C192.857 665.765 192.751 666.02 192.564 666.207C192.376 666.395 192.122 666.5 191.857 666.5Z" fill="#79B473"/>
</g>
<defs>
<clipPath id="clip0">
<rect width="827.9" height="666.5" fill="white"/>
</clipPath>
</defs>
</svg>
