<svg width="50" height="50" viewBox="0 0 50 50" fill="none" xmlns="http://www.w3.org/2000/svg">
<path d="M25 46.875C20.6735 46.875 16.4442 45.5921 12.8469 43.1884C9.24959 40.7848 6.44581 37.3683 4.79014 33.3712C3.13448 29.3741 2.70128 24.9757 3.54533 20.7324C4.38938 16.4891 6.47277 12.5913 9.53205 9.53205C12.5913 6.47277 16.4891 4.38938 20.7324 3.54533C24.9757 2.70128 29.3741 3.13448 33.3712 4.79014C37.3683 6.44581 40.7848 9.24959 43.1884 12.8469C45.5921 16.4442 46.875 20.6735 46.875 25C46.875 30.8016 44.5703 36.3656 40.468 40.468C36.3656 44.5703 30.8016 46.875 25 46.875ZM25 6.25001C21.2916 6.25001 17.6665 7.34968 14.5831 9.40995C11.4996 11.4702 9.09641 14.3986 7.67727 17.8247C6.25813 21.2508 5.88681 25.0208 6.61029 28.658C7.33376 32.2951 9.11952 35.636 11.7418 38.2583C14.364 40.8805 17.7049 42.6663 21.3421 43.3897C24.9792 44.1132 28.7492 43.7419 32.1753 42.3227C35.6014 40.9036 38.5298 38.5004 40.5901 35.417C42.6503 32.3335 43.75 28.7084 43.75 25C43.75 20.0272 41.7746 15.2581 38.2583 11.7418C34.742 8.22545 29.9728 6.25001 25 6.25001V6.25001Z" fill="#79B473"/>
<path d="M32.1719 34.375L23.4375 25.6406V10.9375H26.5625V24.3437L34.375 32.1719L32.1719 34.375Z" fill="#79B473"/>
</svg>
