<svg width="50" height="50" viewBox="0 0 50 50" fill="none" xmlns="http://www.w3.org/2000/svg">
<g clip-path="url(#clip0_51:12)">
<path d="M22.9813 17.6438C22.836 17.4985 22.6635 17.3833 22.4737 17.3046C22.2839 17.226 22.0805 17.1855 21.875 17.1855C21.6696 17.1855 21.4661 17.226 21.2763 17.3046C21.0865 17.3833 20.914 17.4985 20.7688 17.6438C20.6235 17.789 20.5083 17.9615 20.4296 18.1513C20.351 18.3411 20.3105 18.5446 20.3105 18.75C20.3105 18.9555 20.351 19.1589 20.4296 19.3487C20.5083 19.5385 20.6235 19.711 20.7688 19.8563L24.3531 23.4375L20.7688 27.0188C20.6235 27.164 20.5083 27.3365 20.4296 27.5263C20.351 27.7161 20.3105 27.9196 20.3105 28.125C20.3105 28.3305 20.351 28.5339 20.4296 28.7237C20.5083 28.9135 20.6235 29.086 20.7688 29.2313C20.914 29.3765 21.0865 29.4918 21.2763 29.5704C21.4661 29.649 21.6696 29.6895 21.875 29.6895C22.0805 29.6895 22.2839 29.649 22.4737 29.5704C22.6635 29.4918 22.836 29.3765 22.9813 29.2313L26.5625 25.6469L30.1438 29.2313C30.4372 29.5247 30.8351 29.6895 31.25 29.6895C31.6649 29.6895 32.0629 29.5247 32.3563 29.2313C32.6497 28.9379 32.8145 28.5399 32.8145 28.125C32.8145 27.7101 32.6497 27.3122 32.3563 27.0188L28.7719 23.4375L32.3563 19.8563C32.6497 19.5629 32.8145 19.1649 32.8145 18.75C32.8145 18.3351 32.6497 17.9372 32.3563 17.6438C32.0629 17.3504 31.6649 17.1855 31.25 17.1855C30.8351 17.1855 30.4372 17.3504 30.1438 17.6438L26.5625 21.2281L22.9813 17.6438Z" fill="#79B473"/>
<path d="M1.5625 3.125C1.1481 3.125 0.750671 3.28962 0.457646 3.58265C0.16462 3.87567 0 4.2731 0 4.6875C0 5.1019 0.16462 5.49933 0.457646 5.79235C0.750671 6.08538 1.1481 6.25 1.5625 6.25H5.03125L6.28437 11.2719L10.9656 36.225C11.0327 36.5831 11.2227 36.9064 11.5028 37.1392C11.783 37.3721 12.1357 37.4997 12.5 37.5H15.625C13.9674 37.5 12.3777 38.1585 11.2056 39.3306C10.0335 40.5027 9.375 42.0924 9.375 43.75C9.375 45.4076 10.0335 46.9973 11.2056 48.1694C12.3777 49.3415 13.9674 50 15.625 50C17.2826 50 18.8723 49.3415 20.0444 48.1694C21.2165 46.9973 21.875 45.4076 21.875 43.75C21.875 42.0924 21.2165 40.5027 20.0444 39.3306C18.8723 38.1585 17.2826 37.5 15.625 37.5H37.5C35.8424 37.5 34.2527 38.1585 33.0806 39.3306C31.9085 40.5027 31.25 42.0924 31.25 43.75C31.25 45.4076 31.9085 46.9973 33.0806 48.1694C34.2527 49.3415 35.8424 50 37.5 50C39.1576 50 40.7473 49.3415 41.9194 48.1694C43.0915 46.9973 43.75 45.4076 43.75 43.75C43.75 42.0924 43.0915 40.5027 41.9194 39.3306C40.7473 38.1585 39.1576 37.5 37.5 37.5H40.625C40.9893 37.4997 41.342 37.3721 41.6222 37.1392C41.9023 36.9064 42.0923 36.5831 42.1594 36.225L46.8469 11.225C46.8891 10.9995 46.8811 10.7675 46.8235 10.5454C46.766 10.3233 46.6602 10.1166 46.5137 9.94001C46.3673 9.76342 46.1837 9.62125 45.9761 9.5236C45.7685 9.42595 45.5419 9.37521 45.3125 9.375H9.03125L7.76562 4.30937C7.68128 3.9712 7.48629 3.67093 7.21166 3.45633C6.93703 3.24172 6.59853 3.1251 6.25 3.125H1.5625ZM13.7969 34.375L9.69375 12.5H43.4312L39.3281 34.375H13.7969V34.375ZM18.75 43.75C18.75 44.5788 18.4208 45.3737 17.8347 45.9597C17.2487 46.5458 16.4538 46.875 15.625 46.875C14.7962 46.875 14.0013 46.5458 13.4153 45.9597C12.8292 45.3737 12.5 44.5788 12.5 43.75C12.5 42.9212 12.8292 42.1263 13.4153 41.5403C14.0013 40.9542 14.7962 40.625 15.625 40.625C16.4538 40.625 17.2487 40.9542 17.8347 41.5403C18.4208 42.1263 18.75 42.9212 18.75 43.75V43.75ZM40.625 43.75C40.625 44.5788 40.2958 45.3737 39.7097 45.9597C39.1237 46.5458 38.3288 46.875 37.5 46.875C36.6712 46.875 35.8763 46.5458 35.2903 45.9597C34.7042 45.3737 34.375 44.5788 34.375 43.75C34.375 42.9212 34.7042 42.1263 35.2903 41.5403C35.8763 40.9542 36.6712 40.625 37.5 40.625C38.3288 40.625 39.1237 40.9542 39.7097 41.5403C40.2958 42.1263 40.625 42.9212 40.625 43.75V43.75Z" fill="#79B473"/>
</g>
<defs>
<clipPath id="clip0_51:12">
<rect width="50" height="50" fill="white"/>
</clipPath>
</defs>
</svg>
